<?xml version="1.0" standalone="yes"?>

<svg version="1.1" viewBox="0.0 0.0 324.82152230971127 311.9212598425197" fill="none" stroke="none" stroke-linecap="square" stroke-miterlimit="10" xmlns="http://www.w3.org/2000/svg" xmlns:xlink="http://www.w3.org/1999/xlink"><clipPath id="p.0"><path d="m0 0l324.82153 0l0 311.92126l-324.82153 0l0 -311.92126z" clip-rule="nonzero"></path></clipPath><g clip-path="url(#p.0)"><path fill="#000000" fill-opacity="0.0" d="m0 0l324.82153 0l0 311.92126l-324.82153 0z" fill-rule="nonzero"></path><path fill="#000000" fill-opacity="0.0" d="m38.193752 157.75336l0 0c0 -69.09711 56.01427 -125.11138 125.111374 -125.11138l0 0c33.181595 0 65.004166 13.181339 88.4671 36.64427c23.462936 23.462936 36.64427 55.285507 36.64427 88.46711l0 0c0 69.09711 -56.014267 125.11139 -125.111374 125.11139l0 0c-69.09711 0 -125.111374 -56.014282 -125.111374 -125.11139z" fill-rule="nonzero"></path><path stroke="#fff2cc" stroke-width="1.0" stroke-linejoin="round" stroke-linecap="butt" d="m38.193752 157.75336l0 0c0 -69.09711 56.01427 -125.11138 125.111374 -125.11138l0 0c33.181595 0 65.004166 13.181339 88.4671 36.64427c23.462936 23.462936 36.64427 55.285507 36.64427 88.46711l0 0c0 69.09711 -56.014267 125.11139 -125.111374 125.11139l0 0c-69.09711 0 -125.111374 -56.014282 -125.111374 -125.11139z" fill-rule="nonzero"></path><path fill="#000000" fill-opacity="0.0" d="m40.6168 157.75328l0 0c0 -67.63097 54.82573 -122.456696 122.45669 -122.456696l0 0c32.47754 0 63.624878 12.901649 86.589966 35.866734c22.965088 22.965088 35.86673 54.112427 35.86673 86.58996l0 0c0 67.63097 -54.82573 122.45668 -122.456696 122.45668l0 0c-67.63096 0 -122.45669 -54.825714 -122.45669 -122.45668z" fill-rule="nonzero"></path><path stroke="#fff2cc" stroke-width="1.0" stroke-linejoin="round" stroke-linecap="butt" d="m40.6168 157.75328l0 0c0 -67.63097 54.82573 -122.456696 122.45669 -122.456696l0 0c32.47754 0 63.624878 12.901649 86.589966 35.866734c22.965088 22.965088 35.86673 54.112427 35.86673 86.58996l0 0c0 67.63097 -54.82573 122.45668 -122.456696 122.45668l0 0c-67.63096 0 -122.45669 -54.825714 -122.45669 -122.45668z" fill-rule="nonzero"></path><path fill="#000000" fill-opacity="0.0" d="m163.33528 35.86142l-1.0013275 1.9921722l-1.2418671 2.8319092l-1.1042023 3.1460762l-0.7926483 2.8436546l-0.7259979 4.0900497l-0.3782196 5.173481l0.17245483 4.2309837l0.8274231 4.520195l1.2418671 5.0105286l1.5881958 3.7068787l1.4490967 2.7966766l2.0707397 -4.370453l1.6215363 -4.474678l0.9317627 -4.054817l0.58688354 -4.52166l0 -3.9153442l-0.31155396 -4.6258965l-1.0346527 -4.9415283l-0.9665375 -3.2620544l-1.7258606 -4.1252785z" fill-rule="nonzero"></path><path stroke="#fff2cc" stroke-width="1.0" stroke-linejoin="round" stroke-linecap="butt" d="m163.33528 35.86142l-1.0013275 1.9921722l-1.2418671 2.8319092l-1.1042023 3.1460762l-0.7926483 2.8436546l-0.7259979 4.0900497l-0.3782196 5.173481l0.17245483 4.2309837l0.8274231 4.520195l1.2418671 5.0105286l1.5881958 3.7068787l1.4490967 2.7966766l2.0707397 -4.370453l1.6215363 -4.474678l0.9317627 -4.054817l0.58688354 -4.52166l0 -3.9153442l-0.31155396 -4.6258965l-1.0346527 -4.9415283l-0.9665375 -3.2620544l-1.7258606 -4.1252785z" fill-rule="nonzero"></path><path fill="#000000" fill-opacity="0.0" d="m198.36266 55.54747l-2.2407532 0.12700653l-3.0924225 0.34220886l-3.2946472 0.62548065l-2.8728943 0.74829865l-3.9203491 1.4450684l-4.682617 2.3088799l-3.5831757 2.3173027l-3.4991608 3.0485458l-3.7127075 3.6684113l-2.4043884 3.3101807l-1.6856995 2.7208023l4.851364 -0.3908081l4.712082 -0.8441925l3.994995 -1.2437897l4.2237244 -1.7896881l3.3974762 -2.0023117l3.8547058 -2.6431503l3.7588043 -3.448578l2.3363037 -2.5290298l2.6970367 -3.6467514z" fill-rule="nonzero"></path><path stroke="#fff2cc" stroke-width="1.0" stroke-linejoin="round" stroke-linecap="butt" d="m198.36266 55.54747l-2.2407532 0.12700653l-3.0924225 0.34220886l-3.2946472 0.62548065l-2.8728943 0.74829865l-3.9203491 1.4450684l-4.682617 2.3088799l-3.5831757 2.3173027l-3.4991608 3.0485458l-3.7127075 3.6684113l-2.4043884 3.3101807l-1.6856995 2.7208023l4.851364 -0.3908081l4.712082 -0.8441925l3.994995 -1.2437897l4.2237244 -1.7896881l3.3974762 -2.0023117l3.8547058 -2.6431503l3.7588043 -3.448578l2.3363037 -2.5290298l2.6970367 -3.6467514z" fill-rule="nonzero"></path><path fill="#000000" fill-opacity="0.0" d="m198.66167 96.73483l-1.231308 -1.9085999l-1.8424683 -2.5504227l-2.1866455 -2.586525l-2.0807037 -2.1538086l-3.202835 -2.7267303l-4.325348 -2.9650116l-3.781845 -1.993103l-4.3667755 -1.5529175l-5.005249 -1.430397l-4.0427246 -0.4582901l-3.177353 -0.12093353l2.7651978 4.0742188l3.084198 3.7245483l3.0676422 2.8932571l3.650299 2.8211517l3.4187317 1.9874268l4.1972656 2.0688934l4.8398285 1.5810776l3.3388214 0.78961945l4.4779205 0.5472946z" fill-rule="nonzero"></path><path stroke="#fff2cc" stroke-width="1.0" stroke-linejoin="round" stroke-linecap="butt" d="m198.66167 96.73483l-1.231308 -1.9085999l-1.8424683 -2.5504227l-2.1866455 -2.586525l-2.0807037 -2.1538086l-3.202835 -2.7267303l-4.325348 -2.9650116l-3.781845 -1.993103l-4.3667755 -1.5529175l-5.005249 -1.430397l-4.0427246 -0.4582901l-3.177353 -0.12093353l2.7651978 4.0742188l3.084198 3.7245483l3.0676422 2.8932571l3.650299 2.8211517l3.4187317 1.9874268l4.1972656 2.0688934l4.8398285 1.5810776l3.3388214 0.78961945l4.4779205 0.5472946z" fill-rule="nonzero"></path><path fill="#000000" fill-opacity="0.0" d="m163.3657 116.43232l1.0013123 -1.9921722l1.2418823 -2.8319092l1.1042023 -3.14608l0.7926483 -2.8436584l0.7259979 -4.090042l0.37820435 -5.173485l-0.17243958 -4.23098l-0.8274231 -4.520195l-1.2418823 -5.0105286l-1.5881958 -3.7068787l-1.4490814 -2.7966766l-2.070755 4.3704453l-1.621521 4.4746857l-0.93177795 4.0548096l-0.5868683 4.52166l0 3.9153519l0.31155396 4.6258926l1.0346375 4.9415283l0.96655273 3.2620544l1.7258606 4.1252823z" fill-rule="nonzero"></path><path stroke="#fff2cc" stroke-width="1.0" stroke-linejoin="round" stroke-linecap="butt" d="m163.3657 116.43232l1.0013123 -1.9921722l1.2418823 -2.8319092l1.1042023 -3.14608l0.7926483 -2.8436584l0.7259979 -4.090042l0.37820435 -5.173485l-0.17243958 -4.23098l-0.8274231 -4.520195l-1.2418823 -5.0105286l-1.5881958 -3.7068787l-1.4490814 -2.7966766l-2.070755 4.3704453l-1.621521 4.4746857l-0.93177795 4.0548096l-0.5868683 4.52166l0 3.9153519l0.31155396 4.6258926l1.0346375 4.9415283l0.96655273 3.2620544l1.7258606 4.1252823z" fill-rule="nonzero"></path><path fill="#000000" fill-opacity="0.0" d="m128.33832 96.74626l2.2407532 -0.1269989l3.0924377 -0.3422165l3.2946472 -0.62548065l2.8728943 -0.748291l3.9203339 -1.4450684l4.682617 -2.3088837l3.5831757 -2.317299l3.499176 -3.0485535l3.7127075 -3.6684113l2.4043732 -3.310173l1.6856995 -2.7208023l-4.851349 0.3908081l-4.712082 0.8441849l-3.9950104 1.2437897l-4.223709 1.7896957l-3.3974762 2.002304l-3.854721 2.643158l-3.7588043 3.4485703l-2.3363037 2.5290375l-2.6970367 3.6467514z" fill-rule="nonzero"></path><path stroke="#fff2cc" stroke-width="1.0" stroke-linejoin="round" stroke-linecap="butt" d="m128.33832 96.74626l2.2407532 -0.1269989l3.0924377 -0.3422165l3.2946472 -0.62548065l2.8728943 -0.748291l3.9203339 -1.4450684l4.682617 -2.3088837l3.5831757 -2.317299l3.499176 -3.0485535l3.7127075 -3.6684113l2.4043732 -3.310173l1.6856995 -2.7208023l-4.851349 0.3908081l-4.712082 0.8441849l-3.9950104 1.2437897l-4.223709 1.7896957l-3.3974762 2.002304l-3.854721 2.643158l-3.7588043 3.4485703l-2.3363037 2.5290375l-2.6970367 3.6467514z" fill-rule="nonzero"></path><path fill="#000000" fill-opacity="0.0" d="m128.0393 55.558903l1.2313232 1.9085999l1.8424683 2.5504265l2.1866455 2.586525l2.0807037 2.153801l3.2028198 2.726738l4.325348 2.965004l3.781845 1.9931107l4.3667755 1.5529175l5.0052643 1.430397l4.0427094 0.45828247l3.1773682 0.12094116l-2.765213 -4.0742264l-3.0841827 -3.7245407l-3.0676422 -2.8932571l-3.650299 -2.8211517l-3.4187317 -1.9874306l-4.1972656 -2.0688934l-4.8398438 -1.5810776l-3.3388214 -0.78961563l-4.4779053 -0.5472946z" fill-rule="nonzero"></path><path stroke="#fff2cc" stroke-width="1.0" stroke-linejoin="round" stroke-linecap="butt" d="m128.0393 55.558903l1.2313232 1.9085999l1.8424683 2.5504265l2.1866455 2.586525l2.0807037 2.153801l3.2028198 2.726738l4.325348 2.965004l3.781845 1.9931107l4.3667755 1.5529175l5.0052643 1.430397l4.0427094 0.45828247l3.1773682 0.12094116l-2.765213 -4.0742264l-3.0841827 -3.7245407l-3.0676422 -2.8932571l-3.650299 -2.8211517l-3.4187317 -1.9874306l-4.1972656 -2.0688934l-4.8398438 -1.5810776l-3.3388214 -0.78961563l-4.4779053 -0.5472946z" fill-rule="nonzero"></path><path fill="#000000" fill-opacity="0.0" d="m92.929855 77.247826l-1.0013199 1.9921722l-1.2418671 2.8319092l-1.1042023 3.1460724l-0.79265594 2.8436584l-0.7259903 4.0900497l-0.37821198 5.173477l0.17243958 4.2309875l0.8274307 4.5201874l1.2418671 5.0105286l1.5882034 3.7068863l1.449089 2.7966766l2.0707474 -4.370453l1.6215286 -4.474678l0.9317627 -4.054817l0.58688354 -4.52166l0 -3.9153442l-0.31155396 -4.6258926l-1.0346527 -4.941536l-0.9665375 -3.2620544l-1.7258682 -4.1252747z" fill-rule="nonzero"></path><path stroke="#fff2cc" stroke-width="1.0" stroke-linejoin="round" stroke-linecap="butt" d="m92.929855 77.247826l-1.0013199 1.9921722l-1.2418671 2.8319092l-1.1042023 3.1460724l-0.79265594 2.8436584l-0.7259903 4.0900497l-0.37821198 5.173477l0.17243958 4.2309875l0.8274307 4.5201874l1.2418671 5.0105286l1.5882034 3.7068863l1.449089 2.7966766l2.0707474 -4.370453l1.6215286 -4.474678l0.9317627 -4.054817l0.58688354 -4.52166l0 -3.9153442l-0.31155396 -4.6258926l-1.0346527 -4.941536l-0.9665375 -3.2620544l-1.7258682 -4.1252747z" fill-rule="nonzero"></path><path fill="#000000" fill-opacity="0.0" d="m127.95724 96.933876l-2.2407455 0.12700653l-3.09243 0.34220886l-3.2946472 0.62548065l-2.8728943 0.74829865l-3.9203415 1.4450684l-4.682617 2.308876l-3.5831757 2.3173065l-3.499176 3.0485458l-3.7127075 3.6684113l-2.4043732 3.3101807l-1.6857071 2.7208023l4.851364 -0.3908081l4.712082 -0.8441925l3.994995 -1.2437897l4.2237244 -1.7896881l3.3974762 -2.0023117l3.8547058 -2.643158l3.758812 -3.4485703l2.3363037 -2.5290298l2.697029 -3.6467514z" fill-rule="nonzero"></path><path stroke="#fff2cc" stroke-width="1.0" stroke-linejoin="round" stroke-linecap="butt" d="m127.95724 96.933876l-2.2407455 0.12700653l-3.09243 0.34220886l-3.2946472 0.62548065l-2.8728943 0.74829865l-3.9203415 1.4450684l-4.682617 2.308876l-3.5831757 2.3173065l-3.499176 3.0485458l-3.7127075 3.6684113l-2.4043732 3.3101807l-1.6857071 2.7208023l4.851364 -0.3908081l4.712082 -0.8441925l3.994995 -1.2437897l4.2237244 -1.7896881l3.3974762 -2.0023117l3.8547058 -2.643158l3.758812 -3.4485703l2.3363037 -2.5290298l2.697029 -3.6467514z" fill-rule="nonzero"></path><path fill="#000000" fill-opacity="0.0" d="m128.46098 137.50313l-1.2313232 -1.9085999l-1.8424683 -2.5504303l-2.1866455 -2.5865173l-2.0807037 -2.1538086l-3.2028275 -2.7267303l-4.325348 -2.9650116l-3.781845 -1.9931107l-4.3667755 -1.5529099l-5.005249 -1.430397l-4.042717 -0.4582901l-3.1773682 -0.12093353l2.7652054 4.0742188l3.084198 3.7245407l3.0676346 2.8932648l3.650299 2.8211517l3.4187317 1.9874268l4.1972656 2.0688934l4.839836 1.5810852l3.3388214 0.7896118l4.477913 0.547287z" fill-rule="nonzero"></path><path stroke="#fff2cc" stroke-width="1.0" stroke-linejoin="round" stroke-linecap="butt" d="m128.46098 137.50313l-1.2313232 -1.9085999l-1.8424683 -2.5504303l-2.1866455 -2.5865173l-2.0807037 -2.1538086l-3.2028275 -2.7267303l-4.325348 -2.9650116l-3.781845 -1.9931107l-4.3667755 -1.5529099l-5.005249 -1.430397l-4.042717 -0.4582901l-3.1773682 -0.12093353l2.7652054 4.0742188l3.084198 3.7245407l3.0676346 2.8932648l3.650299 2.8211517l3.4187317 1.9874268l4.1972656 2.0688934l4.839836 1.5810852l3.3388214 0.7896118l4.477913 0.547287z" fill-rule="nonzero"></path><path fill="#000000" fill-opacity="0.0" d="m92.96029 157.81873l1.0013199 -1.9921722l1.2418671 -2.8319092l1.1042099 -3.1460876l0.7926483 -2.8436432l0.7259903 -4.0900574l0.37821198 -5.173477l-0.17243958 -4.2309875l-0.8274307 -4.5201874l-1.2418671 -5.0105286l-1.5882034 -3.7068787l-1.449089 -2.7966766l-2.0707474 4.3704453l-1.6215286 4.4746857l-0.9317627 4.054817l-0.58688354 4.521652l0 3.9153442l0.31155396 4.6259003l1.0346527 4.9415283l0.9665451 3.2620544l1.7258606 4.1252747z" fill-rule="nonzero"></path><path stroke="#fff2cc" stroke-width="1.0" stroke-linejoin="round" stroke-linecap="butt" d="m92.96029 157.81873l1.0013199 -1.9921722l1.2418671 -2.8319092l1.1042099 -3.1460876l0.7926483 -2.8436432l0.7259903 -4.0900574l0.37821198 -5.173477l-0.17243958 -4.2309875l-0.8274307 -4.5201874l-1.2418671 -5.0105286l-1.5882034 -3.7068787l-1.449089 -2.7966766l-2.0707474 4.3704453l-1.6215286 4.4746857l-0.9317627 4.054817l-0.58688354 4.521652l0 3.9153442l0.31155396 4.6259003l1.0346527 4.9415283l0.9665451 3.2620544l1.7258606 4.1252747z" fill-rule="nonzero"></path><path fill="#000000" fill-opacity="0.0" d="m57.932907 138.13268l2.2407494 -0.12701416l3.09243 -0.34220886l3.2946434 -0.625473l2.8728943 -0.7483063l3.9203415 -1.4450684l4.682625 -2.3088684l3.5831757 -2.3173065l3.4991684 -3.0485535l3.7127075 -3.6684113l2.4043732 -3.310173l1.6857071 -2.7208023l-4.851364 0.39080048l-4.7120743 0.8441925l-3.9950027 1.2437897l-4.2237244 1.7896881l-3.3974762 2.0023117l-3.8547058 2.643158l-3.758812 3.448578l-2.3363 2.5290222l-2.697033 3.646759z" fill-rule="nonzero"></path><path stroke="#fff2cc" stroke-width="1.0" stroke-linejoin="round" stroke-linecap="butt" d="m57.932907 138.13268l2.2407494 -0.12701416l3.09243 -0.34220886l3.2946434 -0.625473l2.8728943 -0.7483063l3.9203415 -1.4450684l4.682625 -2.3088684l3.5831757 -2.3173065l3.4991684 -3.0485535l3.7127075 -3.6684113l2.4043732 -3.310173l1.6857071 -2.7208023l-4.851364 0.39080048l-4.7120743 0.8441925l-3.9950027 1.2437897l-4.2237244 1.7896881l-3.3974762 2.0023117l-3.8547058 2.643158l-3.758812 3.448578l-2.3363 2.5290222l-2.697033 3.646759z" fill-rule="nonzero"></path><path fill="#000000" fill-opacity="0.0" d="m57.63389 96.945305l1.2313194 1.9085999l1.8424683 2.5504303l2.1866493 2.586525l2.080696 2.153801l3.202835 2.726738l4.325348 2.965004l3.781845 1.9931107l4.3667755 1.5529175l5.005249 1.4303894l4.042717 0.4582901l3.1773682 0.12093353l-2.7652054 -4.0742188l-3.084198 -3.7245407l-3.0676346 -2.8932648l-3.650299 -2.821144l-3.4187317 -1.9874344l-4.1972656 -2.0688934l-4.839836 -1.5810776l-3.3388214 -0.7896118l-4.4779167 -0.5472946z" fill-rule="nonzero"></path><path stroke="#fff2cc" stroke-width="1.0" stroke-linejoin="round" stroke-linecap="butt" d="m57.63389 96.945305l1.2313194 1.9085999l1.8424683 2.5504303l2.1866493 2.586525l2.080696 2.153801l3.202835 2.726738l4.325348 2.965004l3.781845 1.9931107l4.3667755 1.5529175l5.005249 1.4303894l4.042717 0.4582901l3.1773682 0.12093353l-2.7652054 -4.0742188l-3.084198 -3.7245407l-3.0676346 -2.8932648l-3.650299 -2.821144l-3.4187317 -1.9874344l-4.1972656 -2.0688934l-4.839836 -1.5810776l-3.3388214 -0.7896118l-4.4779167 -0.5472946z" fill-rule="nonzero"></path><path fill="#000000" fill-opacity="0.0" d="m92.929855 158.36905l-1.0013199 1.9921722l-1.2418671 2.8319092l-1.1042023 3.1460876l-0.79265594 2.8436432l-0.7259903 4.0900574l-0.37821198 5.173477l0.17243958 4.2309875l0.8274307 4.5201874l1.2418671 5.0105286l1.5882034 3.7068787l1.449089 2.7966766l2.0707474 -4.370453l1.6215286 -4.4746704l0.9317627 -4.054825l0.58688354 -4.521652l0 -3.9153442l-0.31155396 -4.6259003l-1.0346527 -4.9415283l-0.9665375 -3.2620544l-1.7258682 -4.1252747z" fill-rule="nonzero"></path><path stroke="#fff2cc" stroke-width="1.0" stroke-linejoin="round" stroke-linecap="butt" d="m92.929855 158.36905l-1.0013199 1.9921722l-1.2418671 2.8319092l-1.1042023 3.1460876l-0.79265594 2.8436432l-0.7259903 4.0900574l-0.37821198 5.173477l0.17243958 4.2309875l0.8274307 4.5201874l1.2418671 5.0105286l1.5882034 3.7068787l1.449089 2.7966766l2.0707474 -4.370453l1.6215286 -4.4746704l0.9317627 -4.054825l0.58688354 -4.521652l0 -3.9153442l-0.31155396 -4.6259003l-1.0346527 -4.9415283l-0.9665375 -3.2620544l-1.7258682 -4.1252747z" fill-rule="nonzero"></path><path fill="#000000" fill-opacity="0.0" d="m127.95724 178.0551l-2.2407455 0.12701416l-3.09243 0.34220886l-3.2946472 0.625473l-2.8728943 0.7483063l-3.9203415 1.4450684l-4.682617 2.3088684l-3.5831757 2.3173065l-3.499176 3.0485535l-3.7127075 3.6684113l-2.4043732 3.3101807l-1.6857071 2.7207947l4.851364 -0.3908081l4.712082 -0.8441925l3.994995 -1.2437897l4.2237244 -1.7896881l3.3974762 -2.002304l3.8547058 -2.643158l3.758812 -3.448578l2.3363037 -2.5290222l2.697029 -3.646759z" fill-rule="nonzero"></path><path stroke="#fff2cc" stroke-width="1.0" stroke-linejoin="round" stroke-linecap="butt" d="m127.95724 178.0551l-2.2407455 0.12701416l-3.09243 0.34220886l-3.2946472 0.625473l-2.8728943 0.7483063l-3.9203415 1.4450684l-4.682617 2.3088684l-3.5831757 2.3173065l-3.499176 3.0485535l-3.7127075 3.6684113l-2.4043732 3.3101807l-1.6857071 2.7207947l4.851364 -0.3908081l4.712082 -0.8441925l3.994995 -1.2437897l4.2237244 -1.7896881l3.3974762 -2.002304l3.8547058 -2.643158l3.758812 -3.448578l2.3363037 -2.5290222l2.697029 -3.646759z" fill-rule="nonzero"></path><path fill="#000000" fill-opacity="0.0" d="m128.25626 219.24246l-1.2313156 -1.9085999l-1.8424683 -2.550415l-2.1866531 -2.5865326l-2.080696 -2.1538086l-3.202835 -2.7267303l-4.3253403 -2.9650116l-3.781845 -1.993103l-4.366783 -1.5529175l-5.005249 -1.4303894l-4.042717 -0.45829773l-3.1773605 -0.1209259l2.7651978 4.0742188l3.084198 3.7245483l3.0676346 2.8932495l3.650299 2.8211517l3.4187317 1.9874268l4.1972656 2.0688934l4.839836 1.5810852l3.3388214 0.7896118l4.4779205 0.547287z" fill-rule="nonzero"></path><path stroke="#fff2cc" stroke-width="1.0" stroke-linejoin="round" stroke-linecap="butt" d="m128.25626 219.24246l-1.2313156 -1.9085999l-1.8424683 -2.550415l-2.1866531 -2.5865326l-2.080696 -2.1538086l-3.202835 -2.7267303l-4.3253403 -2.9650116l-3.781845 -1.993103l-4.366783 -1.5529175l-5.005249 -1.4303894l-4.042717 -0.45829773l-3.1773605 -0.1209259l2.7651978 4.0742188l3.084198 3.7245483l3.0676346 2.8932495l3.650299 2.8211517l3.4187317 1.9874268l4.1972656 2.0688934l4.839836 1.5810852l3.3388214 0.7896118l4.4779205 0.547287z" fill-rule="nonzero"></path><path fill="#000000" fill-opacity="0.0" d="m92.96029 238.93996l1.0013199 -1.9921722l1.2418671 -2.8319244l1.1042099 -3.1460724l0.7926483 -2.8436584l0.7259903 -4.090042l0.37821198 -5.173477l-0.17243958 -4.2309875l-0.8274307 -4.5201874l-1.2418671 -5.0105286l-1.5882034 -3.7068787l-1.449089 -2.7966766l-2.0707474 4.3704376l-1.6215286 4.4746857l-0.9317627 4.0548096l-0.58688354 4.5216675l0 3.9153442l0.31155396 4.6259003l1.0346527 4.9415283l0.9665451 3.2620544l1.7258606 4.1252747z" fill-rule="nonzero"></path><path stroke="#fff2cc" stroke-width="1.0" stroke-linejoin="round" stroke-linecap="butt" d="m92.96029 238.93996l1.0013199 -1.9921722l1.2418671 -2.8319244l1.1042099 -3.1460724l0.7926483 -2.8436584l0.7259903 -4.090042l0.37821198 -5.173477l-0.17243958 -4.2309875l-0.8274307 -4.5201874l-1.2418671 -5.0105286l-1.5882034 -3.7068787l-1.449089 -2.7966766l-2.0707474 4.3704376l-1.6215286 4.4746857l-0.9317627 4.0548096l-0.58688354 4.5216675l0 3.9153442l0.31155396 4.6259003l1.0346527 4.9415283l0.9665451 3.2620544l1.7258606 4.1252747z" fill-rule="nonzero"></path><path fill="#000000" fill-opacity="0.0" d="m57.932907 219.25389l2.2407494 -0.1269989l3.09243 -0.34220886l3.2946434 -0.6254883l2.8728943 -0.748291l3.9203415 -1.4450684l4.682625 -2.3088837l3.5831757 -2.3172913l3.4991684 -3.0485535l3.7127075 -3.6684113l2.4043732 -3.3101807l1.6857071 -2.7207947l-4.851364 0.39079285l-4.7120743 0.8441925l-3.9950027 1.2437897l-4.2237244 1.7897034l-3.3974762 2.002304l-3.8547058 2.643158l-3.758812 3.4485626l-2.3363 2.5290375l-2.697033 3.646759z" fill-rule="nonzero"></path><path stroke="#fff2cc" stroke-width="1.0" stroke-linejoin="round" stroke-linecap="butt" d="m57.932907 219.25389l2.2407494 -0.1269989l3.09243 -0.34220886l3.2946434 -0.6254883l2.8728943 -0.748291l3.9203415 -1.4450684l4.682625 -2.3088837l3.5831757 -2.3172913l3.4991684 -3.0485535l3.7127075 -3.6684113l2.4043732 -3.3101807l1.6857071 -2.7207947l-4.851364 0.39079285l-4.7120743 0.8441925l-3.9950027 1.2437897l-4.2237244 1.7897034l-3.3974762 2.002304l-3.8547058 2.643158l-3.758812 3.4485626l-2.3363 2.5290375l-2.697033 3.646759z" fill-rule="nonzero"></path><path fill="#000000" fill-opacity="0.0" d="m57.63389 178.06653l1.2313194 1.9085999l1.8424683 2.5504303l2.1866493 2.5865326l2.080696 2.1537933l3.202835 2.7267456l4.325348 2.9649963l3.781845 1.9931183l4.3667755 1.5529175l5.005249 1.4303894l4.042717 0.45828247l3.1773682 0.12094116l-2.7652054 -4.0742188l-3.084198 -3.7245483l-3.0676346 -2.8932495l-3.650299 -2.8211517l-3.4187317 -1.987442l-4.1972656 -2.0688934l-4.839836 -1.58107l-3.3388214 -0.7896118l-4.4779167 -0.54730225z" fill-rule="nonzero"></path><path stroke="#fff2cc" stroke-width="1.0" stroke-linejoin="round" stroke-linecap="butt" d="m57.63389 178.06653l1.2313194 1.9085999l1.8424683 2.5504303l2.1866493 2.5865326l2.080696 2.1537933l3.202835 2.7267456l4.325348 2.9649963l3.781845 1.9931183l4.3667755 1.5529175l5.005249 1.4303894l4.042717 0.45828247l3.1773682 0.12094116l-2.7652054 -4.0742188l-3.084198 -3.7245483l-3.0676346 -2.8932495l-3.650299 -2.8211517l-3.4187317 -1.987442l-4.1972656 -2.0688934l-4.839836 -1.58107l-3.3388214 -0.7896118l-4.4779167 -0.54730225z" fill-rule="nonzero"></path><path fill="#000000" fill-opacity="0.0" d="m233.07991 157.8178l-1.0013275 1.9921722l-1.2418671 2.8319092l-1.1042023 3.1460724l-0.7926483 2.8436584l-0.7259979 4.090042l-0.37820435 5.1734924l0.17243958 4.2309723l0.8274231 4.5202026l1.2418671 5.0105286l1.588211 3.7068787l1.4490814 2.7966766l2.070755 -4.370453l1.621521 -4.4746857l0.9317627 -4.0548096l0.58688354 -4.5216675l0 -3.9153442l-0.31155396 -4.625885l-1.0346527 -4.9415283l-0.9665375 -3.2620544l-1.7258606 -4.12529z" fill-rule="nonzero"></path><path stroke="#fff2cc" stroke-width="1.0" stroke-linejoin="round" stroke-linecap="butt" d="m233.07991 157.8178l-1.0013275 1.9921722l-1.2418671 2.8319092l-1.1042023 3.1460724l-0.7926483 2.8436584l-0.7259979 4.090042l-0.37820435 5.1734924l0.17243958 4.2309723l0.8274231 4.5202026l1.2418671 5.0105286l1.588211 3.7068787l1.4490814 2.7966766l2.070755 -4.370453l1.621521 -4.4746857l0.9317627 -4.0548096l0.58688354 -4.5216675l0 -3.9153442l-0.31155396 -4.625885l-1.0346527 -4.9415283l-0.9665375 -3.2620544l-1.7258606 -4.12529z" fill-rule="nonzero"></path><path fill="#000000" fill-opacity="0.0" d="m268.1073 177.50385l-2.2407532 0.1269989l-3.0924377 0.34220886l-3.2946472 0.6254883l-2.8728943 0.748291l-3.9203339 1.4450684l-4.682617 2.3088837l-3.5831757 2.3173065l-3.499176 3.0485382l-3.7127075 3.6684113l-2.4043732 3.3101807l-1.6857147 2.72081l4.851364 -0.3908081l4.712082 -0.8441925l3.994995 -1.2437897l4.2237244 -1.7896881l3.3974762 -2.0023193l3.854721 -2.6431427l3.758789 -3.448578l2.3363037 -2.5290375l2.697052 -3.6467438z" fill-rule="nonzero"></path><path stroke="#fff2cc" stroke-width="1.0" stroke-linejoin="round" stroke-linecap="butt" d="m268.1073 177.50385l-2.2407532 0.1269989l-3.0924377 0.34220886l-3.2946472 0.6254883l-2.8728943 0.748291l-3.9203339 1.4450684l-4.682617 2.3088837l-3.5831757 2.3173065l-3.499176 3.0485382l-3.7127075 3.6684113l-2.4043732 3.3101807l-1.6857147 2.72081l4.851364 -0.3908081l4.712082 -0.8441925l3.994995 -1.2437897l4.2237244 -1.7896881l3.3974762 -2.0023193l3.854721 -2.6431427l3.758789 -3.448578l2.3363037 -2.5290375l2.697052 -3.6467438z" fill-rule="nonzero"></path><path fill="#000000" fill-opacity="0.0" d="m268.4063 218.69121l-1.2313232 -1.9085999l-1.8424683 -2.5504303l-2.1866455 -2.5865173l-2.0806885 -2.1538086l-3.2028503 -2.7267303l-4.3253326 -2.9650116l-3.781845 -1.993103l-4.366791 -1.5529175l-5.005249 -1.4304047l-4.0427094 -0.45828247l-3.1773682 -0.12094116l2.765213 4.0742188l3.0841827 3.7245483l3.0676422 2.8932648l3.650299 2.8211517l3.4187317 1.9874268l4.1972656 2.0688934l4.8398438 1.58107l3.3388062 0.7896271l4.477936 0.547287z" fill-rule="nonzero"></path><path stroke="#fff2cc" stroke-width="1.0" stroke-linejoin="round" stroke-linecap="butt" d="m268.4063 218.69121l-1.2313232 -1.9085999l-1.8424683 -2.5504303l-2.1866455 -2.5865173l-2.0806885 -2.1538086l-3.2028503 -2.7267303l-4.3253326 -2.9650116l-3.781845 -1.993103l-4.366791 -1.5529175l-5.005249 -1.4304047l-4.0427094 -0.45828247l-3.1773682 -0.12094116l2.765213 4.0742188l3.0841827 3.7245483l3.0676422 2.8932648l3.650299 2.8211517l3.4187317 1.9874268l4.1972656 2.0688934l4.8398438 1.58107l3.3388062 0.7896271l4.477936 0.547287z" fill-rule="nonzero"></path><path fill="#000000" fill-opacity="0.0" d="m163.33528 199.20493l-1.0013275 1.9921722l-1.2418671 2.8319092l-1.1042023 3.1460876l-0.7926483 2.8436432l-0.7259979 4.0900574l-0.3782196 5.173477l0.17245483 4.2309875l0.8274231 4.5201874l1.2418671 5.0105286l1.5881958 3.7068787l1.4490967 2.7966766l2.0707397 -4.370453l1.6215363 -4.4746704l0.9317627 -4.054825l0.58688354 -4.521652l0 -3.9153442l-0.31155396 -4.6259003l-1.0346527 -4.9415283l-0.9665375 -3.2620544l-1.7258606 -4.1252747z" fill-rule="nonzero"></path><path stroke="#fff2cc" stroke-width="1.0" stroke-linejoin="round" stroke-linecap="butt" d="m163.33528 199.20493l-1.0013275 1.9921722l-1.2418671 2.8319092l-1.1042023 3.1460876l-0.7926483 2.8436432l-0.7259979 4.0900574l-0.3782196 5.173477l0.17245483 4.2309875l0.8274231 4.5201874l1.2418671 5.0105286l1.5881958 3.7068787l1.4490967 2.7966766l2.0707397 -4.370453l1.6215363 -4.4746704l0.9317627 -4.054825l0.58688354 -4.521652l0 -3.9153442l-0.31155396 -4.6259003l-1.0346527 -4.9415283l-0.9665375 -3.2620544l-1.7258606 -4.1252747z" fill-rule="nonzero"></path><path fill="#000000" fill-opacity="0.0" d="m198.36266 218.89098l-2.2407532 0.12701416l-3.0924225 0.34220886l-3.2946472 0.625473l-2.8728943 0.7483063l-3.9203491 1.4450684l-4.682617 2.3088684l-3.5831757 2.3173065l-3.4991608 3.0485535l-3.7127075 3.6684113l-2.4043884 3.3101807l-1.6856995 2.7207947l4.851364 -0.3908081l4.712082 -0.8441925l3.994995 -1.2437897l4.2237244 -1.7896881l3.3974762 -2.002304l3.8547058 -2.643158l3.7588043 -3.448578l2.3363037 -2.5290222l2.6970367 -3.646759z" fill-rule="nonzero"></path><path stroke="#fff2cc" stroke-width="1.0" stroke-linejoin="round" stroke-linecap="butt" d="m198.36266 218.89098l-2.2407532 0.12701416l-3.0924225 0.34220886l-3.2946472 0.625473l-2.8728943 0.7483063l-3.9203491 1.4450684l-4.682617 2.3088684l-3.5831757 2.3173065l-3.4991608 3.0485535l-3.7127075 3.6684113l-2.4043884 3.3101807l-1.6856995 2.7207947l4.851364 -0.3908081l4.712082 -0.8441925l3.994995 -1.2437897l4.2237244 -1.7896881l3.3974762 -2.002304l3.8547058 -2.643158l3.7588043 -3.448578l2.3363037 -2.5290222l2.6970367 -3.646759z" fill-rule="nonzero"></path><path fill="#000000" fill-opacity="0.0" d="m198.66167 260.07834l-1.231308 -1.9085999l-1.8424683 -2.550415l-2.1866455 -2.5865326l-2.0807037 -2.1538086l-3.202835 -2.7267303l-4.325348 -2.9650116l-3.781845 -1.993103l-4.3667755 -1.5529175l-5.005249 -1.4303894l-4.0427246 -0.45829773l-3.177353 -0.1209259l2.7651978 4.0742188l3.084198 3.7245483l3.0676422 2.8932495l3.650299 2.8211517l3.4187317 1.9874268l4.1972656 2.0689087l4.8398285 1.5810547l3.3388214 0.78964233l4.4779205 0.5472717z" fill-rule="nonzero"></path><path stroke="#fff2cc" stroke-width="1.0" stroke-linejoin="round" stroke-linecap="butt" d="m198.66167 260.07834l-1.231308 -1.9085999l-1.8424683 -2.550415l-2.1866455 -2.5865326l-2.0807037 -2.1538086l-3.202835 -2.7267303l-4.325348 -2.9650116l-3.781845 -1.993103l-4.3667755 -1.5529175l-5.005249 -1.4303894l-4.0427246 -0.45829773l-3.177353 -0.1209259l2.7651978 4.0742188l3.084198 3.7245483l3.0676422 2.8932495l3.650299 2.8211517l3.4187317 1.9874268l4.1972656 2.0689087l4.8398285 1.5810547l3.3388214 0.78964233l4.4779205 0.5472717z" fill-rule="nonzero"></path><path fill="#000000" fill-opacity="0.0" d="m163.3657 279.77582l1.0013123 -1.992157l1.2418823 -2.8319092l1.1042023 -3.1460876l0.7926483 -2.8436584l0.7259979 -4.090027l0.37820435 -5.1734924l-0.17243958 -4.2309875l-0.8274231 -4.5201874l-1.2418823 -5.0105286l-1.5881958 -3.7068787l-1.4490814 -2.7966766l-2.070755 4.3704376l-1.621521 4.4746857l-0.93177795 4.0548096l-0.5868683 4.5216675l0 3.9153442l0.31155396 4.625885l1.0346375 4.9415283l0.96655273 3.2620544l1.7258606 4.125305z" fill-rule="nonzero"></path><path stroke="#fff2cc" stroke-width="1.0" stroke-linejoin="round" stroke-linecap="butt" d="m163.3657 279.77582l1.0013123 -1.992157l1.2418823 -2.8319092l1.1042023 -3.1460876l0.7926483 -2.8436584l0.7259979 -4.090027l0.37820435 -5.1734924l-0.17243958 -4.2309875l-0.8274231 -4.5201874l-1.2418823 -5.0105286l-1.5881958 -3.7068787l-1.4490814 -2.7966766l-2.070755 4.3704376l-1.621521 4.4746857l-0.93177795 4.0548096l-0.5868683 4.5216675l0 3.9153442l0.31155396 4.625885l1.0346375 4.9415283l0.96655273 3.2620544l1.7258606 4.125305z" fill-rule="nonzero"></path><path fill="#000000" fill-opacity="0.0" d="m128.33832 260.08978l2.2407532 -0.12701416l3.0924377 -0.34222412l3.2946472 -0.62545776l2.8728943 -0.748291l3.9203339 -1.4450684l4.682617 -2.308899l3.5831757 -2.3172913l3.499176 -3.0485535l3.7127075 -3.6684113l2.4043732 -3.3101807l1.6856995 -2.7207947l-4.851349 0.3908081l-4.712082 0.84417725l-3.9950104 1.2437897l-4.223709 1.7897034l-3.3974762 2.002304l-3.854721 2.643158l-3.7588043 3.4485626l-2.3363037 2.5290375l-2.6970367 3.6467438z" fill-rule="nonzero"></path><path stroke="#fff2cc" stroke-width="1.0" stroke-linejoin="round" stroke-linecap="butt" d="m128.33832 260.08978l2.2407532 -0.12701416l3.0924377 -0.34222412l3.2946472 -0.62545776l2.8728943 -0.748291l3.9203339 -1.4450684l4.682617 -2.308899l3.5831757 -2.3172913l3.499176 -3.0485535l3.7127075 -3.6684113l2.4043732 -3.3101807l1.6856995 -2.7207947l-4.851349 0.3908081l-4.712082 0.84417725l-3.9950104 1.2437897l-4.223709 1.7897034l-3.3974762 2.002304l-3.854721 2.643158l-3.7588043 3.4485626l-2.3363037 2.5290375l-2.6970367 3.6467438z" fill-rule="nonzero"></path><path fill="#000000" fill-opacity="0.0" d="m128.0393 218.90242l1.2313232 1.9085846l1.8424683 2.5504303l2.1866455 2.5865326l2.0807037 2.1537933l3.2028198 2.7267456l4.325348 2.9650116l3.781845 1.993103l4.3667755 1.5529175l5.0052643 1.4303894l4.0427094 0.45828247l3.1773682 0.12094116l-2.765213 -4.0742188l-3.0841827 -3.7245483l-3.0676422 -2.8932495l-3.650299 -2.8211517l-3.4187317 -1.987442l-4.1972656 -2.0688782l-4.8398438 -1.5810852l-3.3388214 -0.7896118l-4.4779053 -0.54730225z" fill-rule="nonzero"></path><path stroke="#fff2cc" stroke-width="1.0" stroke-linejoin="round" stroke-linecap="butt" d="m128.0393 218.90242l1.2313232 1.9085846l1.8424683 2.5504303l2.1866455 2.5865326l2.0807037 2.1537933l3.2028198 2.7267456l4.325348 2.9650116l3.781845 1.993103l4.3667755 1.5529175l5.0052643 1.4303894l4.0427094 0.45828247l3.1773682 0.12094116l-2.765213 -4.0742188l-3.0841827 -3.7245483l-3.0676422 -2.8932495l-3.650299 -2.8211517l-3.4187317 -1.987442l-4.1972656 -2.0688782l-4.8398438 -1.5810852l-3.3388214 -0.7896118l-4.4779053 -0.54730225z" fill-rule="nonzero"></path><path fill="#000000" fill-opacity="0.0" d="m233.07991 76.697296l-1.0013275 1.9921722l-1.2418671 2.8319092l-1.1042023 3.14608l-0.7926483 2.8436508l-0.7259979 4.0900497l-0.37820435 5.173485l0.17243958 4.23098l0.8274231 4.520195l1.2418671 5.0105286l1.588211 3.7068787l1.4490814 2.7966766l2.070755 -4.370453l1.621521 -4.474678l0.9317627 -4.054817l0.58688354 -4.52166l0 -3.9153442l-0.31155396 -4.6258926l-1.0346527 -4.9415283l-0.9665375 -3.2620544l-1.7258606 -4.1252823z" fill-rule="nonzero"></path><path stroke="#fff2cc" stroke-width="1.0" stroke-linejoin="round" stroke-linecap="butt" d="m233.07991 76.697296l-1.0013275 1.9921722l-1.2418671 2.8319092l-1.1042023 3.14608l-0.7926483 2.8436508l-0.7259979 4.0900497l-0.37820435 5.173485l0.17243958 4.23098l0.8274231 4.520195l1.2418671 5.0105286l1.588211 3.7068787l1.4490814 2.7966766l2.070755 -4.370453l1.621521 -4.474678l0.9317627 -4.054817l0.58688354 -4.52166l0 -3.9153442l-0.31155396 -4.6258926l-1.0346527 -4.9415283l-0.9665375 -3.2620544l-1.7258606 -4.1252823z" fill-rule="nonzero"></path><path fill="#000000" fill-opacity="0.0" d="m268.1073 96.38335l-2.2407532 0.12700653l-3.0924377 0.34220886l-3.2946472 0.62548065l-2.8728943 0.74829865l-3.9203339 1.4450684l-4.682617 2.308876l-3.5831757 2.3173065l-3.499176 3.0485458l-3.7127075 3.668419l-2.4043732 3.310173l-1.6857147 2.7208023l4.851364 -0.3908081l4.712082 -0.8441925l3.994995 -1.243782l4.2237244 -1.7896957l3.3974762 -2.002304l3.854721 -2.643158l3.758789 -3.448578l2.3363037 -2.5290298l2.697052 -3.6467514z" fill-rule="nonzero"></path><path stroke="#fff2cc" stroke-width="1.0" stroke-linejoin="round" stroke-linecap="butt" d="m268.1073 96.38335l-2.2407532 0.12700653l-3.0924377 0.34220886l-3.2946472 0.62548065l-2.8728943 0.74829865l-3.9203339 1.4450684l-4.682617 2.308876l-3.5831757 2.3173065l-3.499176 3.0485458l-3.7127075 3.668419l-2.4043732 3.310173l-1.6857147 2.7208023l4.851364 -0.3908081l4.712082 -0.8441925l3.994995 -1.243782l4.2237244 -1.7896957l3.3974762 -2.002304l3.854721 -2.643158l3.758789 -3.448578l2.3363037 -2.5290298l2.697052 -3.6467514z" fill-rule="nonzero"></path><path fill="#000000" fill-opacity="0.0" d="m268.4063 137.57071l-1.2313232 -1.9085999l-1.8424683 -2.5504303l-2.1866455 -2.5865173l-2.0806885 -2.1538086l-3.2028503 -2.7267303l-4.3253326 -2.9650116l-3.781845 -1.993103l-4.366791 -1.5529175l-5.005249 -1.430397l-4.0427094 -0.45828247l-3.1773682 -0.12094116l2.765213 4.0742188l3.0841827 3.7245483l3.0676422 2.8932571l3.650299 2.8211517l3.4187317 1.9874268l4.1972656 2.0688934l4.8398438 1.5810852l3.3388062 0.7896118l4.477936 0.547287z" fill-rule="nonzero"></path><path stroke="#fff2cc" stroke-width="1.0" stroke-linejoin="round" stroke-linecap="butt" d="m268.4063 137.57071l-1.2313232 -1.9085999l-1.8424683 -2.5504303l-2.1866455 -2.5865173l-2.0806885 -2.1538086l-3.2028503 -2.7267303l-4.3253326 -2.9650116l-3.781845 -1.993103l-4.366791 -1.5529175l-5.005249 -1.430397l-4.0427094 -0.45828247l-3.1773682 -0.12094116l2.765213 4.0742188l3.0841827 3.7245483l3.0676422 2.8932571l3.650299 2.8211517l3.4187317 1.9874268l4.1972656 2.0688934l4.8398438 1.5810852l3.3388062 0.7896118l4.477936 0.547287z" fill-rule="nonzero"></path><path fill="#000000" fill-opacity="0.0" d="m233.11034 238.38869l1.0013275 -1.9921722l1.2418671 -2.8319092l1.1042023 -3.1460724l0.7926483 -2.8436584l0.7259979 -4.090042l0.37820435 -5.1734924l-0.17243958 -4.2309723l-0.8274231 -4.5202026l-1.2418671 -5.0105286l-1.588211 -3.7068787l-1.4490814 -2.7966766l-2.070755 4.370453l-1.621521 4.4746857l-0.9317627 4.0548096l-0.58688354 4.521652l0 3.9153595l0.31155396 4.625885l1.0346527 4.9415283l0.9665375 3.2620544l1.7258606 4.12529z" fill-rule="nonzero"></path><path stroke="#fff2cc" stroke-width="1.0" stroke-linejoin="round" stroke-linecap="butt" d="m233.11034 238.38869l1.0013275 -1.9921722l1.2418671 -2.8319092l1.1042023 -3.1460724l0.7926483 -2.8436584l0.7259979 -4.090042l0.37820435 -5.1734924l-0.17243958 -4.2309723l-0.8274231 -4.5202026l-1.2418671 -5.0105286l-1.588211 -3.7068787l-1.4490814 -2.7966766l-2.070755 4.370453l-1.621521 4.4746857l-0.9317627 4.0548096l-0.58688354 4.521652l0 3.9153595l0.31155396 4.625885l1.0346527 4.9415283l0.9665375 3.2620544l1.7258606 4.12529z" fill-rule="nonzero"></path><path fill="#000000" fill-opacity="0.0" d="m198.08296 218.70264l2.240738 -0.1269989l3.0924377 -0.34222412l3.2946472 -0.625473l2.8728943 -0.748291l3.9203339 -1.4450684l4.6826324 -2.3088837l3.5831757 -2.3173065l3.4991608 -3.0485535l3.7127075 -3.6684113l2.4043732 -3.3101654l1.6857147 -2.72081l-4.851364 0.3908081l-4.712082 0.8441925l-3.994995 1.2437897l-4.2237244 1.7896881l-3.3974762 2.002304l-3.8547058 2.643158l-3.7588196 3.448578l-2.3362885 2.5290375l-2.6970367 3.6467438z" fill-rule="nonzero"></path><path stroke="#fff2cc" stroke-width="1.0" stroke-linejoin="round" stroke-linecap="butt" d="m198.08296 218.70264l2.240738 -0.1269989l3.0924377 -0.34222412l3.2946472 -0.625473l2.8728943 -0.748291l3.9203339 -1.4450684l4.6826324 -2.3088837l3.5831757 -2.3173065l3.4991608 -3.0485535l3.7127075 -3.6684113l2.4043732 -3.3101654l1.6857147 -2.72081l-4.851364 0.3908081l-4.712082 0.8441925l-3.994995 1.2437897l-4.2237244 1.7896881l-3.3974762 2.002304l-3.8547058 2.643158l-3.7588196 3.448578l-2.3362885 2.5290375l-2.6970367 3.6467438z" fill-rule="nonzero"></path><path fill="#000000" fill-opacity="0.0" d="m198.1947 178.45753l1.2313232 1.9085999l1.8424683 2.550415l2.1866455 2.5865326l2.0807037 2.1538086l3.2028198 2.7267303l4.325348 2.9650116l3.781845 1.993103l4.3667755 1.5529175l5.005249 1.4303894l4.0427246 0.45829773l3.1773682 0.1209259l-2.765213 -4.0742188l-3.0841827 -3.724533l-3.0676422 -2.8932648l-3.650299 -2.8211517l-3.4187317 -1.9874268l-4.1972656 -2.0688934l-4.8398438 -1.5810852l-3.3388214 -0.7896118l-4.4779053 -0.547287z" fill-rule="nonzero"></path><path stroke="#fff2cc" stroke-width="1.0" stroke-linejoin="round" stroke-linecap="butt" d="m198.1947 178.45753l1.2313232 1.9085999l1.8424683 2.550415l2.1866455 2.5865326l2.0807037 2.1538086l3.2028198 2.7267303l4.325348 2.9650116l3.781845 1.993103l4.3667755 1.5529175l5.005249 1.4303894l4.0427246 0.45829773l3.1773682 0.1209259l-2.765213 -4.0742188l-3.0841827 -3.724533l-3.0676422 -2.8932648l-3.650299 -2.8211517l-3.4187317 -1.9874268l-4.1972656 -2.0688934l-4.8398438 -1.5810852l-3.3388214 -0.7896118l-4.4779053 -0.547287z" fill-rule="nonzero"></path><path fill="#000000" fill-opacity="0.0" d="m233.11034 157.26819l1.0013275 -1.9921722l1.2418671 -2.8319092l1.1042023 -3.1460724l0.7926483 -2.8436584l0.7259979 -4.090042l0.37820435 -5.173477l-0.17243958 -4.2309875l-0.8274231 -4.5201874l-1.2418671 -5.010536l-1.588211 -3.7068787l-1.4490814 -2.7966766l-2.070755 4.3704453l-1.621521 4.4746857l-0.9317627 4.0548096l-0.58688354 4.5216675l0 3.9153442l0.31155396 4.625885l1.0346527 4.9415436l0.9665375 3.2620544l1.7258606 4.1252747z" fill-rule="nonzero"></path><path stroke="#fff2cc" stroke-width="1.0" stroke-linejoin="round" stroke-linecap="butt" d="m233.11034 157.26819l1.0013275 -1.9921722l1.2418671 -2.8319092l1.1042023 -3.1460724l0.7926483 -2.8436584l0.7259979 -4.090042l0.37820435 -5.173477l-0.17243958 -4.2309875l-0.8274231 -4.5201874l-1.2418671 -5.010536l-1.588211 -3.7068787l-1.4490814 -2.7966766l-2.070755 4.3704453l-1.621521 4.4746857l-0.9317627 4.0548096l-0.58688354 4.5216675l0 3.9153442l0.31155396 4.625885l1.0346527 4.9415436l0.9665375 3.2620544l1.7258606 4.1252747z" fill-rule="nonzero"></path><path fill="#000000" fill-opacity="0.0" d="m198.08296 137.58214l2.240738 -0.1269989l3.0924377 -0.34220886l3.2946472 -0.6254883l2.8728943 -0.748291l3.9203339 -1.4450684l4.6826324 -2.3088837l3.5831757 -2.3173065l3.4991608 -3.0485458l3.7127075 -3.6684113l2.4043732 -3.310173l1.6857147 -2.7208023l-4.851364 0.3908081l-4.712082 0.8441925l-3.994995 1.243782l-4.2237244 1.7896957l-3.3974762 2.002304l-3.8547058 2.643158l-3.7588196 3.4485703l-2.3362885 2.5290375l-2.6970367 3.6467438z" fill-rule="nonzero"></path><path stroke="#fff2cc" stroke-width="1.0" stroke-linejoin="round" stroke-linecap="butt" d="m198.08296 137.58214l2.240738 -0.1269989l3.0924377 -0.34220886l3.2946472 -0.6254883l2.8728943 -0.748291l3.9203339 -1.4450684l4.6826324 -2.3088837l3.5831757 -2.3173065l3.4991608 -3.0485458l3.7127075 -3.6684113l2.4043732 -3.310173l1.6857147 -2.7208023l-4.851364 0.3908081l-4.712082 0.8441925l-3.994995 1.243782l-4.2237244 1.7896957l-3.3974762 2.002304l-3.8547058 2.643158l-3.7588196 3.4485703l-2.3362885 2.5290375l-2.6970367 3.6467438z" fill-rule="nonzero"></path><path fill="#000000" fill-opacity="0.0" d="m197.78394 96.39478l1.2313232 1.9085999l1.8424683 2.5504227l2.1866455 2.586525l2.0807037 2.153801l3.202835 2.726738l4.325348 2.9650116l3.781845 1.993103l4.3667755 1.5529175l5.005249 1.430397l4.0427094 0.45828247l3.1773682 0.12094116l-2.7651978 -4.0742188l-3.084198 -3.7245483l-3.0676422 -2.8932571l-3.650299 -2.8211517l-3.4187317 -1.9874268l-4.1972656 -2.0688934l-4.8398285 -1.5810852l-3.3388214 -0.7896118l-4.4779205 -0.5472946z" fill-rule="nonzero"></path><path stroke="#fff2cc" stroke-width="1.0" stroke-linejoin="round" stroke-linecap="butt" d="m197.78394 96.39478l1.2313232 1.9085999l1.8424683 2.5504227l2.1866455 2.586525l2.0807037 2.153801l3.202835 2.726738l4.325348 2.9650116l3.781845 1.993103l4.3667755 1.5529175l5.005249 1.430397l4.0427094 0.45828247l3.1773682 0.12094116l-2.7651978 -4.0742188l-3.084198 -3.7245483l-3.0676422 -2.8932571l-3.650299 -2.8211517l-3.4187317 -1.9874268l-4.1972656 -2.0688934l-4.8398285 -1.5810852l-3.3388214 -0.7896118l-4.4779205 -0.5472946z" fill-rule="nonzero"></path><path fill="#000000" fill-opacity="0.0" d="m163.43495 35.294746l1.231308 1.908596l1.8424683 2.5504265l2.1866608 2.586525l2.0806885 2.1538048l3.202835 2.7267342l4.325348 2.9650078l3.781845 1.9931068l4.3667755 1.5529175l5.005249 1.430397l4.0427246 0.4582863l3.177353 0.12093735l-2.7651978 -4.0742226l-3.084198 -3.7245445l-3.067627 -2.8932571l-3.650299 -2.8211517l-3.4187317 -1.9874306l-4.1972656 -2.0688896l-4.8398438 -1.5810814l-3.3388214 -0.78961563l-4.4779205 -0.5472946z" fill-rule="nonzero"></path><path stroke="#fff2cc" stroke-width="1.0" stroke-linejoin="round" stroke-linecap="butt" d="m163.43495 35.294746l1.231308 1.908596l1.8424683 2.5504265l2.1866608 2.586525l2.0806885 2.1538048l3.202835 2.7267342l4.325348 2.9650078l3.781845 1.9931068l4.3667755 1.5529175l5.005249 1.430397l4.0427246 0.4582863l3.177353 0.12093735l-2.7651978 -4.0742226l-3.084198 -3.7245445l-3.067627 -2.8932571l-3.650299 -2.8211517l-3.4187317 -1.9874306l-4.1972656 -2.0688896l-4.8398438 -1.5810814l-3.3388214 -0.78961563l-4.4779205 -0.5472946z" fill-rule="nonzero"></path><path fill="#000000" fill-opacity="0.0" d="m197.78415 55.758194l1.231308 1.9085999l1.8424683 2.5504227l2.1866608 2.586525l2.0806885 2.1538086l3.202835 2.7267303l4.325348 2.9650116l3.781845 1.993103l4.3667755 1.5529175l5.005249 1.430397l4.0427246 0.4582901l3.177353 0.12093353l-2.7651978 -4.0742188l-3.084198 -3.7245483l-3.0676422 -2.8932571l-3.650299 -2.821148l-3.4187164 -1.9874306l-4.1972656 -2.0688934l-4.8398438 -1.5810814l-3.3388214 -0.78961563l-4.4779205 -0.5472908z" fill-rule="nonzero"></path><path stroke="#fff2cc" stroke-width="1.0" stroke-linejoin="round" stroke-linecap="butt" d="m197.78415 55.758194l1.231308 1.9085999l1.8424683 2.5504227l2.1866608 2.586525l2.0806885 2.1538086l3.202835 2.7267303l4.325348 2.9650116l3.781845 1.993103l4.3667755 1.5529175l5.005249 1.430397l4.0427246 0.4582901l3.177353 0.12093353l-2.7651978 -4.0742188l-3.084198 -3.7245483l-3.0676422 -2.8932571l-3.650299 -2.821148l-3.4187164 -1.9874306l-4.1972656 -2.0688934l-4.8398438 -1.5810814l-3.3388214 -0.78961563l-4.4779205 -0.5472908z" fill-rule="nonzero"></path><path fill="#000000" fill-opacity="0.0" d="m233.17958 76.52113l1.2313232 1.9085922l1.8424683 2.5504303l2.1866455 2.586525l2.0807037 2.153801l3.2028198 2.726738l4.325348 2.965004l3.781845 1.9931107l4.3667755 1.5529175l5.005249 1.430397l4.0427246 0.45828247l3.1773682 0.12093353l-2.7651978 -4.0742188l-3.084198 -3.7245407l-3.0676575 -2.8932571l-3.6502838 -2.8211517l-3.4187317 -1.9874344l-4.1972656 -2.0688934l-4.8398438 -1.5810776l-3.3388214 -0.7896118l-4.4779053 -0.5472946z" fill-rule="nonzero"></path><path stroke="#fff2cc" stroke-width="1.0" stroke-linejoin="round" stroke-linecap="butt" d="m233.17958 76.52113l1.2313232 1.9085922l1.8424683 2.5504303l2.1866455 2.586525l2.0807037 2.153801l3.2028198 2.726738l4.325348 2.965004l3.781845 1.9931107l4.3667755 1.5529175l5.005249 1.430397l4.0427246 0.45828247l3.1773682 0.12093353l-2.7651978 -4.0742188l-3.084198 -3.7245407l-3.0676575 -2.8932571l-3.6502838 -2.8211517l-3.4187317 -1.9874344l-4.1972656 -2.0688934l-4.8398438 -1.5810776l-3.3388214 -0.7896118l-4.4779053 -0.5472946z" fill-rule="nonzero"></path><path fill="#000000" fill-opacity="0.0" d="m57.986053 96.9318l2.2466354 -0.1330185l3.1001434 -0.35095215l3.3022156 -0.6354904l2.8789978 -0.75756836l3.9276276 -1.458847l4.6898804 -2.326889l3.5873718 -2.3325577l3.5013351 -3.0655365l3.7139359 -3.6875992l2.4028625 -3.3250961l1.6836624 -2.7323303l-4.863823 0.40412903l-4.72303 0.85837555l-4.002983 1.2572174l-4.230995 1.8051605l-3.4019394 2.0162506l-3.8588562 2.6599655l-3.760704 3.4672852l-2.3365288 2.5416946l-2.695507 3.6633148z" fill-rule="nonzero"></path><path stroke="#fff2cc" stroke-width="1.0" stroke-linejoin="round" stroke-linecap="butt" d="m57.986053 96.9318l2.2466354 -0.1330185l3.1001434 -0.35095215l3.3022156 -0.6354904l2.8789978 -0.75756836l3.9276276 -1.458847l4.6898804 -2.326889l3.5873718 -2.3325577l3.5013351 -3.0655365l3.7139359 -3.6875992l2.4028625 -3.3250961l1.6836624 -2.7323303l-4.863823 0.40412903l-4.72303 0.85837555l-4.002983 1.2572174l-4.230995 1.8051605l-3.4019394 2.0162506l-3.8588562 2.6599655l-3.760704 3.4672852l-2.3365288 2.5416946l-2.695507 3.6633148z" fill-rule="nonzero"></path><path fill="#000000" fill-opacity="0.0" d="m92.59041 76.91999l2.2466354 -0.13301086l3.1001434 -0.35095215l3.3022156 -0.6354904l2.8789978 -0.75756836l3.9276276 -1.458847l4.6898804 -2.326889l3.5873718 -2.3325577l3.5013351 -3.0655441l3.7139359 -3.6875954l2.4028625 -3.3250961l1.6836624 -2.7323265l-4.863823 0.40412903l-4.72303 0.85837173l-4.002983 1.2572174l-4.230995 1.8051605l-3.4019394 2.0162506l-3.8588562 2.6599693l-3.760704 3.4672852l-2.3365326 2.5416946l-2.6955032 3.6633072z" fill-rule="nonzero"></path><path stroke="#fff2cc" stroke-width="1.0" stroke-linejoin="round" stroke-linecap="butt" d="m92.59041 76.91999l2.2466354 -0.13301086l3.1001434 -0.35095215l3.3022156 -0.6354904l2.8789978 -0.75756836l3.9276276 -1.458847l4.6898804 -2.326889l3.5873718 -2.3325577l3.5013351 -3.0655441l3.7139359 -3.6875954l2.4028625 -3.3250961l1.6836624 -2.7323265l-4.863823 0.40412903l-4.72303 0.85837173l-4.002983 1.2572174l-4.230995 1.8051605l-3.4019394 2.0162506l-3.8588562 2.6599693l-3.760704 3.4672852l-2.3365326 2.5416946l-2.6955032 3.6633072z" fill-rule="nonzero"></path><path fill="#000000" fill-opacity="0.0" d="m127.971504 56.13762l2.2466354 -0.1330185l3.1001434 -0.35094833l3.3022156 -0.6354904l2.8789978 -0.75756454l3.9276276 -1.4588509l4.6898804 -2.326889l3.5873718 -2.3325577l3.5013275 -3.0655403l3.7139435 -3.6875992l2.4028625 -3.3250923l1.6836548 -2.7323303l-4.8638153 0.40412903l-4.7230377 0.85837173l-4.0029755 1.2572212l-4.231003 1.8051567l-3.4019318 2.0162506l-3.8588562 2.6599655l-3.7607117 3.4672928l-2.3365173 2.5416946l-2.6955109 3.6633072z" fill-rule="nonzero"></path><path stroke="#fff2cc" stroke-width="1.0" stroke-linejoin="round" stroke-linecap="butt" d="m127.971504 56.13762l2.2466354 -0.1330185l3.1001434 -0.35094833l3.3022156 -0.6354904l2.8789978 -0.75756454l3.9276276 -1.4588509l4.6898804 -2.326889l3.5873718 -2.3325577l3.5013275 -3.0655403l3.7139435 -3.6875992l2.4028625 -3.3250923l1.6836548 -2.7323303l-4.8638153 0.40412903l-4.7230377 0.85837173l-4.0029755 1.2572212l-4.231003 1.8051567l-3.4019318 2.0162506l-3.8588562 2.6599655l-3.7607117 3.4672928l-2.3365173 2.5416946l-2.6955109 3.6633072z" fill-rule="nonzero"></path><path fill="#000000" fill-opacity="0.0" d="m163.43495 280.21237l1.231308 -1.9085999l1.8424683 -2.550415l2.1866608 -2.5865479l2.0806885 -2.1538086l3.202835 -2.726715l4.325348 -2.9650269l3.781845 -1.993103l4.3667755 -1.5529175l5.005249 -1.4303894l4.0427246 -0.45828247l3.177353 -0.12094116l-2.7651978 4.0742188l-3.084198 3.7245483l-3.067627 2.8932495l-3.650299 2.821167l-3.4187317 1.9874268l-4.1972656 2.0688782l-4.8398438 1.5810852l-3.3388214 0.7896118l-4.4779205 0.54730225z" fill-rule="nonzero"></path><path stroke="#fff2cc" stroke-width="1.0" stroke-linejoin="round" stroke-linecap="butt" d="m163.43495 280.21237l1.231308 -1.9085999l1.8424683 -2.550415l2.1866608 -2.5865479l2.0806885 -2.1538086l3.202835 -2.726715l4.325348 -2.9650269l3.781845 -1.993103l4.3667755 -1.5529175l5.005249 -1.4303894l4.0427246 -0.45828247l3.177353 -0.12094116l-2.7651978 4.0742188l-3.084198 3.7245483l-3.067627 2.8932495l-3.650299 2.821167l-3.4187317 1.9874268l-4.1972656 2.0688782l-4.8398438 1.5810852l-3.3388214 0.7896118l-4.4779205 0.54730225z" fill-rule="nonzero"></path><path fill="#000000" fill-opacity="0.0" d="m197.78415 259.74893l1.231308 -1.9085999l1.8424683 -2.5504303l2.1866608 -2.5865326l2.0806885 -2.1538086l3.202835 -2.7267303l4.325348 -2.9650116l3.781845 -1.993103l4.3667755 -1.5529175l5.005249 -1.4303894l4.0427246 -0.45829773l3.177353 -0.1209259l-2.7651978 4.0742188l-3.084198 3.724533l-3.0676422 2.8932648l-3.650299 2.8211517l-3.4187164 1.9874268l-4.1972656 2.0688934l-4.8398438 1.5810852l-3.3388214 0.7896118l-4.4779205 0.54730225z" fill-rule="nonzero"></path><path stroke="#fff2cc" stroke-width="1.0" stroke-linejoin="round" stroke-linecap="butt" d="m197.78415 259.74893l1.231308 -1.9085999l1.8424683 -2.5504303l2.1866608 -2.5865326l2.0806885 -2.1538086l3.202835 -2.7267303l4.325348 -2.9650116l3.781845 -1.993103l4.3667755 -1.5529175l5.005249 -1.4303894l4.0427246 -0.45829773l3.177353 -0.1209259l-2.7651978 4.0742188l-3.084198 3.724533l-3.0676422 2.8932648l-3.650299 2.8211517l-3.4187164 1.9874268l-4.1972656 2.0688934l-4.8398438 1.5810852l-3.3388214 0.7896118l-4.4779205 0.54730225z" fill-rule="nonzero"></path><path fill="#000000" fill-opacity="0.0" d="m233.17958 238.98598l1.2313232 -1.9085999l1.8424683 -2.550415l2.1866455 -2.5865326l2.0807037 -2.1537933l3.2028198 -2.7267456l4.325348 -2.9650116l3.781845 -1.993103l4.3667755 -1.5529175l5.005249 -1.4303894l4.0427246 -0.45828247l3.1773682 -0.12094116l-2.7651978 4.0742188l-3.084198 3.7245483l-3.0676575 2.8932495l-3.6502838 2.8211517l-3.4187317 1.9874268l-4.1972656 2.0688934l-4.8398438 1.5810852l-3.3388214 0.7896118l-4.4779053 0.54730225z" fill-rule="nonzero"></path><path stroke="#fff2cc" stroke-width="1.0" stroke-linejoin="round" stroke-linecap="butt" d="m233.17958 238.98598l1.2313232 -1.9085999l1.8424683 -2.550415l2.1866455 -2.5865326l2.0807037 -2.1537933l3.2028198 -2.7267456l4.325348 -2.9650116l3.781845 -1.993103l4.3667755 -1.5529175l5.005249 -1.4303894l4.0427246 -0.45828247l3.1773682 -0.12094116l-2.7651978 4.0742188l-3.084198 3.7245483l-3.0676575 2.8932495l-3.6502838 2.8211517l-3.4187317 1.9874268l-4.1972656 2.0688934l-4.8398438 1.5810852l-3.3388214 0.7896118l-4.4779053 0.54730225z" fill-rule="nonzero"></path><path fill="#000000" fill-opacity="0.0" d="m57.986053 218.57532l2.2466354 0.13301086l3.1001434 0.35095215l3.3022156 0.63549805l2.8789978 0.7575531l3.9276276 1.458847l4.6898804 2.3269043l3.5873718 2.33255l3.5013351 3.0655365l3.7139359 3.6876068l2.4028625 3.3250885l1.6836624 2.7323303l-4.863823 -0.40412903l-4.72303 -0.8583679l-4.002983 -1.2572174l-4.230995 -1.8051605l-3.4019394 -2.0162506l-3.8588562 -2.6599731l-3.760704 -3.4672852l-2.3365288 -2.5417023l-2.695507 -3.6632996z" fill-rule="nonzero"></path><path stroke="#fff2cc" stroke-width="1.0" stroke-linejoin="round" stroke-linecap="butt" d="m57.986053 218.57532l2.2466354 0.13301086l3.1001434 0.35095215l3.3022156 0.63549805l2.8789978 0.7575531l3.9276276 1.458847l4.6898804 2.3269043l3.5873718 2.33255l3.5013351 3.0655365l3.7139359 3.6876068l2.4028625 3.3250885l1.6836624 2.7323303l-4.863823 -0.40412903l-4.72303 -0.8583679l-4.002983 -1.2572174l-4.230995 -1.8051605l-3.4019394 -2.0162506l-3.8588562 -2.6599731l-3.760704 -3.4672852l-2.3365288 -2.5417023l-2.695507 -3.6632996z" fill-rule="nonzero"></path><path fill="#000000" fill-opacity="0.0" d="m92.59041 238.58711l2.2466354 0.13302612l3.1001434 0.35095215l3.3022156 0.6354828l2.8789978 0.75756836l3.9276276 1.458847l4.6898804 2.326889l3.5873718 2.3325653l3.5013351 3.0655365l3.7139359 3.6875916l2.4028625 3.3251038l1.6836624 2.7323303l-4.863823 -0.4041443l-4.72303 -0.8583679l-4.002983 -1.2572021l-4.230995 -1.8051758l-3.4019394 -2.0162506l-3.8588562 -2.659958l-3.760704 -3.4672852l-2.3365326 -2.5417023l-2.6955032 -3.6633148z" fill-rule="nonzero"></path><path stroke="#fff2cc" stroke-width="1.0" stroke-linejoin="round" stroke-linecap="butt" d="m92.59041 238.58711l2.2466354 0.13302612l3.1001434 0.35095215l3.3022156 0.6354828l2.8789978 0.75756836l3.9276276 1.458847l4.6898804 2.326889l3.5873718 2.3325653l3.5013351 3.0655365l3.7139359 3.6875916l2.4028625 3.3251038l1.6836624 2.7323303l-4.863823 -0.4041443l-4.72303 -0.8583679l-4.002983 -1.2572021l-4.230995 -1.8051758l-3.4019394 -2.0162506l-3.8588562 -2.659958l-3.760704 -3.4672852l-2.3365326 -2.5417023l-2.6955032 -3.6633148z" fill-rule="nonzero"></path><path fill="#000000" fill-opacity="0.0" d="m127.971504 259.3695l2.2466354 0.1329956l3.1001434 0.35095215l3.3022156 0.63549805l2.8789978 0.75756836l3.9276276 1.4588318l4.6898804 2.3269043l3.5873718 2.33255l3.5013275 3.0655518l3.7139435 3.6875916l2.4028625 3.3251038l1.6836548 2.7323303l-4.8638153 -0.4041443l-4.7230377 -0.8583679l-4.0029755 -1.2572327l-4.231003 -1.8051453l-3.4019318 -2.0162354l-3.8588562 -2.6599731l-3.7607117 -3.4672852l-2.3365173 -2.5417175l-2.6955109 -3.6632996z" fill-rule="nonzero"></path><path stroke="#fff2cc" stroke-width="1.0" stroke-linejoin="round" stroke-linecap="butt" d="m127.971504 259.3695l2.2466354 0.1329956l3.1001434 0.35095215l3.3022156 0.63549805l2.8789978 0.75756836l3.9276276 1.4588318l4.6898804 2.3269043l3.5873718 2.33255l3.5013275 3.0655518l3.7139435 3.6875916l2.4028625 3.3251038l1.6836548 2.7323303l-4.8638153 -0.4041443l-4.7230377 -0.8583679l-4.0029755 -1.2572327l-4.231003 -1.8051453l-3.4019318 -2.0162354l-3.8588562 -2.6599731l-3.7607117 -3.4672852l-2.3365173 -2.5417175l-2.6955109 -3.6632996z" fill-rule="nonzero"></path><path fill="#000000" fill-opacity="0.0" d="m268.13507 96.3399l-1.0120239 2.0367126l-1.253479 2.8943405l-1.1116028 3.2141113l-0.7952881 2.9041595l-0.7215271 4.175064l-0.36184692 5.2784195l0.19540405 4.314476l0.8647766 4.606285l1.2896729 5.104393l1.6369019 3.7731018l1.4908142 2.8454132l2.0917358 -4.4675446l1.6330872 -4.571701l0.9315796 -4.1401215l0.57766724 -4.6146164l-0.018096924 -3.9933777l-0.33911133 -4.7165833l-1.0780334 -5.0350266l-1.000824 -3.3223953l-1.7792358 -4.199173z" fill-rule="nonzero"></path><path stroke="#fff2cc" stroke-width="1.0" stroke-linejoin="round" stroke-linecap="butt" d="m268.13507 96.3399l-1.0120239 2.0367126l-1.253479 2.8943405l-1.1116028 3.2141113l-0.7952881 2.9041595l-0.7215271 4.175064l-0.36184692 5.2784195l0.19540405 4.314476l0.8647766 4.606285l1.2896729 5.104393l1.6369019 3.7731018l1.4908142 2.8454132l2.0917358 -4.4675446l1.6330872 -4.571701l0.9315796 -4.1401215l0.57766724 -4.6146164l-0.018096924 -3.9933777l-0.33911133 -4.7165833l-1.0780334 -5.0350266l-1.000824 -3.3223953l-1.7792358 -4.199173z" fill-rule="nonzero"></path><path fill="#000000" fill-opacity="0.0" d="m268.35336 136.43558l-1.0120239 2.0367126l-1.253479 2.8943481l-1.1116333 3.2141113l-0.79525757 2.9041595l-0.7215271 4.175064l-0.36184692 5.278412l0.19540405 4.3144836l0.8647461 4.6062775l1.2897034 5.1044006l1.6369019 3.7730865l1.4908142 2.8454285l2.0917358 -4.46756l1.6330872 -4.571686l0.9315796 -4.1401367l0.57766724 -4.614609l-0.018096924 -3.9933777l-0.33911133 -4.7165833l-1.0780334 -5.035019l-1.000824 -3.322403l-1.7792358 -4.199173z" fill-rule="nonzero"></path><path stroke="#fff2cc" stroke-width="1.0" stroke-linejoin="round" stroke-linecap="butt" d="m268.35336 136.43558l-1.0120239 2.0367126l-1.253479 2.8943481l-1.1116333 3.2141113l-0.79525757 2.9041595l-0.7215271 4.175064l-0.36184692 5.278412l0.19540405 4.3144836l0.8647461 4.6062775l1.2897034 5.1044006l1.6369019 3.7730865l1.4908142 2.8454285l2.0917358 -4.46756l1.6330872 -4.571686l0.9315796 -4.1401367l0.57766724 -4.614609l-0.018096924 -3.9933777l-0.33911133 -4.7165833l-1.0780334 -5.035019l-1.000824 -3.322403l-1.7792358 -4.199173z" fill-rule="nonzero"></path><path fill="#000000" fill-opacity="0.0" d="m268.3815 177.87405l-1.0120239 2.0367126l-1.253479 2.8943481l-1.1116333 3.2141113l-0.79525757 2.9041595l-0.7215576 4.175064l-0.3618164 5.278427l0.19540405 4.3144684l0.8647461 4.6062927l1.2897034 5.1043854l1.6369019 3.7731018l1.4908142 2.8454132l2.0917358 -4.4675446l1.6330872 -4.571701l0.9315491 -4.1401215l0.57766724 -4.614609l-0.018066406 -3.9933777l-0.33911133 -4.7165985l-1.0780334 -5.035019l-1.000824 -3.322403l-1.7792358 -4.1991577z" fill-rule="nonzero"></path><path stroke="#fff2cc" stroke-width="1.0" stroke-linejoin="round" stroke-linecap="butt" d="m268.3815 177.87405l-1.0120239 2.0367126l-1.253479 2.8943481l-1.1116333 3.2141113l-0.79525757 2.9041595l-0.7215576 4.175064l-0.3618164 5.278427l0.19540405 4.3144684l0.8647461 4.6062927l1.2897034 5.1043854l1.6369019 3.7731018l1.4908142 2.8454132l2.0917358 -4.4675446l1.6330872 -4.571701l0.9315491 -4.1401215l0.57766724 -4.614609l-0.018066406 -3.9933777l-0.33911133 -4.7165985l-1.0780334 -5.035019l-1.000824 -3.322403l-1.7792358 -4.1991577z" fill-rule="nonzero"></path><path fill="#000000" fill-opacity="0.0" d="m58.038933 96.3403l-1.0120277 2.0367126l-1.2534752 2.8943481l-1.1116295 3.2141113l-0.79527664 2.904152l-0.7215347 4.1750717l-0.36183548 5.2784195l0.19540787 4.314476l0.86475754 4.606285l1.2896996 5.104393l1.6368942 3.7730865l1.4908142 2.8454285l2.0917282 -4.46756l1.6331024 -4.571686l0.9315567 -4.140129l0.57766724 -4.614609l-0.01808548 -3.9933853l-0.33911133 -4.7165833l-1.0780411 -5.035019l-1.000824 -3.322403l-1.7792282 -4.1991653z" fill-rule="nonzero"></path><path stroke="#fff2cc" stroke-width="1.0" stroke-linejoin="round" stroke-linecap="butt" d="m58.038933 96.3403l-1.0120277 2.0367126l-1.2534752 2.8943481l-1.1116295 3.2141113l-0.79527664 2.904152l-0.7215347 4.1750717l-0.36183548 5.2784195l0.19540787 4.314476l0.86475754 4.606285l1.2896996 5.104393l1.6368942 3.7730865l1.4908142 2.8454285l2.0917282 -4.46756l1.6331024 -4.571686l0.9315567 -4.140129l0.57766724 -4.614609l-0.01808548 -3.9933853l-0.33911133 -4.7165833l-1.0780411 -5.035019l-1.000824 -3.322403l-1.7792282 -4.1991653z" fill-rule="nonzero"></path><path fill="#000000" fill-opacity="0.0" d="m57.7979 136.71158l-1.0120239 2.0367126l-1.253479 2.8943481l-1.1116257 3.214096l-0.79527664 2.9041595l-0.7215347 4.1750793l-0.3618393 5.278412l0.19541168 4.3144684l0.8647537 4.6062927l1.2896996 5.1044006l1.636898 3.7730865l1.4908104 2.8454132l2.091732 -4.4675446l1.6330986 -4.571686l0.9315605 -4.1401367l0.5776634 -4.614609l-0.018081665 -3.9933777l-0.33911514 -4.7165833l-1.0780411 -5.035019l-1.0008202 -3.322403l-1.7792282 -4.199173z" fill-rule="nonzero"></path><path stroke="#fff2cc" stroke-width="1.0" stroke-linejoin="round" stroke-linecap="butt" d="m57.7979 136.71158l-1.0120239 2.0367126l-1.253479 2.8943481l-1.1116257 3.214096l-0.79527664 2.9041595l-0.7215347 4.1750793l-0.3618393 5.278412l0.19541168 4.3144684l0.8647537 4.6062927l1.2896996 5.1044006l1.636898 3.7730865l1.4908104 2.8454132l2.091732 -4.4675446l1.6330986 -4.571686l0.9315605 -4.1401367l0.5776634 -4.614609l-0.018081665 -3.9933777l-0.33911514 -4.7165833l-1.0780411 -5.035019l-1.0008202 -3.322403l-1.7792282 -4.199173z" fill-rule="nonzero"></path><path fill="#000000" fill-opacity="0.0" d="m57.826035 178.15005l-1.0120239 2.0367126l-1.253479 2.8943481l-1.1116257 3.2141113l-0.79527664 2.9041595l-0.7215347 4.175064l-0.3618393 5.278427l0.19541168 4.3144684l0.86475754 4.6062927l1.2896957 5.1043854l1.636898 3.7731018l1.4908142 2.8454132l2.0917282 -4.4675446l1.6330986 -4.571701l0.9315605 -4.1401215l0.5776634 -4.614609l-0.018081665 -3.993393l-0.33911133 -4.7165833l-1.0780411 -5.035019l-1.000824 -3.322403l-1.7792282 -4.1991577z" fill-rule="nonzero"></path><path stroke="#fff2cc" stroke-width="1.0" stroke-linejoin="round" stroke-linecap="butt" d="m57.826035 178.15005l-1.0120239 2.0367126l-1.253479 2.8943481l-1.1116257 3.2141113l-0.79527664 2.9041595l-0.7215347 4.175064l-0.3618393 5.278427l0.19541168 4.3144684l0.86475754 4.6062927l1.2896957 5.1043854l1.636898 3.7731018l1.4908142 2.8454132l2.0917282 -4.4675446l1.6330986 -4.571701l0.9315605 -4.1401215l0.5776634 -4.614609l-0.018081665 -3.993393l-0.33911133 -4.7165833l-1.0780411 -5.035019l-1.000824 -3.322403l-1.7792282 -4.1991577z" fill-rule="nonzero"></path><path fill="#000000" fill-opacity="0.0" d="m163.28922 117.25789l-1.0013275 1.9921722l-1.2418671 2.8319092l-1.1042023 3.14608l-0.7926483 2.8436508l-0.7259979 4.0900574l-0.37820435 5.173477l0.17243958 4.2309875l0.8274231 4.5201874l1.2418671 5.0105286l1.588211 3.7068787l1.4490814 2.7966766l2.070755 -4.370453l1.621521 -4.4746704l0.9317627 -4.054825l0.58688354 -4.521652l0 -3.9153442l-0.31155396 -4.6259003l-1.0346527 -4.9415283l-0.9665375 -3.2620544l-1.7258606 -4.1252823z" fill-rule="nonzero"></path><path stroke="#fff2cc" stroke-width="1.0" stroke-linejoin="round" stroke-linecap="butt" d="m163.28922 117.25789l-1.0013275 1.9921722l-1.2418671 2.8319092l-1.1042023 3.14608l-0.7926483 2.8436508l-0.7259979 4.0900574l-0.37820435 5.173477l0.17243958 4.2309875l0.8274231 4.5201874l1.2418671 5.0105286l1.588211 3.7068787l1.4490814 2.7966766l2.070755 -4.370453l1.621521 -4.4746704l0.9317627 -4.054825l0.58688354 -4.521652l0 -3.9153442l-0.31155396 -4.6259003l-1.0346527 -4.9415283l-0.9665375 -3.2620544l-1.7258606 -4.1252823z" fill-rule="nonzero"></path><path fill="#000000" fill-opacity="0.0" d="m198.41109 137.19853l-2.2407532 0.12701416l-3.0924377 0.34220886l-3.294632 0.625473l-2.8728943 0.7483063l-3.9203491 1.4450684l-4.682617 2.3088684l-3.5831757 2.3173065l-3.499176 3.0485535l-3.7127075 3.6684113l-2.4043732 3.3101807l-1.6856995 2.7207947l4.851364 -0.3908081l4.7120667 -0.8441925l3.9950104 -1.2437897l4.2237244 -1.7896881l3.3974762 -2.002304l3.8547058 -2.643158l3.7588043 -3.448578l2.3363037 -2.5290222l2.6970367 -3.646759z" fill-rule="nonzero"></path><path stroke="#fff2cc" stroke-width="1.0" stroke-linejoin="round" stroke-linecap="butt" d="m198.41109 137.19853l-2.2407532 0.12701416l-3.0924377 0.34220886l-3.294632 0.625473l-2.8728943 0.7483063l-3.9203491 1.4450684l-4.682617 2.3088684l-3.5831757 2.3173065l-3.499176 3.0485535l-3.7127075 3.6684113l-2.4043732 3.3101807l-1.6856995 2.7207947l4.851364 -0.3908081l4.7120667 -0.8441925l3.9950104 -1.2437897l4.2237244 -1.7896881l3.3974762 -2.002304l3.8547058 -2.643158l3.7588043 -3.448578l2.3363037 -2.5290222l2.6970367 -3.646759z" fill-rule="nonzero"></path><path fill="#000000" fill-opacity="0.0" d="m198.61562 178.1313l-1.2313232 -1.9085999l-1.8424683 -2.550415l-2.1866455 -2.5865326l-2.0807037 -2.1538086l-3.202835 -2.7267303l-4.3253326 -2.9650116l-3.781845 -1.993103l-4.366791 -1.5529175l-5.005249 -1.4303894l-4.0427094 -0.45829773l-3.1773682 -0.1209259l2.7651978 4.0742188l3.084198 3.7245483l3.0676422 2.8932495l3.650299 2.8211517l3.4187317 1.9874268l4.1972656 2.0688934l4.8398285 1.5810852l3.3388214 0.7896118l4.4779205 0.54730225z" fill-rule="nonzero"></path><path stroke="#fff2cc" stroke-width="1.0" stroke-linejoin="round" stroke-linecap="butt" d="m198.61562 178.1313l-1.2313232 -1.9085999l-1.8424683 -2.550415l-2.1866455 -2.5865326l-2.0807037 -2.1538086l-3.202835 -2.7267303l-4.3253326 -2.9650116l-3.781845 -1.993103l-4.366791 -1.5529175l-5.005249 -1.4303894l-4.0427094 -0.45829773l-3.1773682 -0.1209259l2.7651978 4.0742188l3.084198 3.7245483l3.0676422 2.8932495l3.650299 2.8211517l3.4187317 1.9874268l4.1972656 2.0688934l4.8398285 1.5810852l3.3388214 0.7896118l4.4779205 0.54730225z" fill-rule="nonzero"></path><path fill="#000000" fill-opacity="0.0" d="m163.31964 197.8288l1.0013275 -1.9921722l1.2418671 -2.8319092l1.1042023 -3.1460876l0.7926483 -2.8436584l0.7259979 -4.090042l0.37820435 -5.173477l-0.17243958 -4.2309875l-0.8274231 -4.5201874l-1.2418671 -5.0105286l-1.588211 -3.7068787l-1.4490814 -2.7966766l-2.070755 4.3704376l-1.621521 4.4746857l-0.9317627 4.0548096l-0.58688354 4.5216675l0 3.9153442l0.31155396 4.6259003l1.0346527 4.9415283l0.9665375 3.2620544l1.7258606 4.1252747z" fill-rule="nonzero"></path><path stroke="#fff2cc" stroke-width="1.0" stroke-linejoin="round" stroke-linecap="butt" d="m163.31964 197.8288l1.0013275 -1.9921722l1.2418671 -2.8319092l1.1042023 -3.1460876l0.7926483 -2.8436584l0.7259979 -4.090042l0.37820435 -5.173477l-0.17243958 -4.2309875l-0.8274231 -4.5201874l-1.2418671 -5.0105286l-1.588211 -3.7068787l-1.4490814 -2.7966766l-2.070755 4.3704376l-1.621521 4.4746857l-0.9317627 4.0548096l-0.58688354 4.5216675l0 3.9153442l0.31155396 4.6259003l1.0346527 4.9415283l0.9665375 3.2620544l1.7258606 4.1252747z" fill-rule="nonzero"></path><path fill="#000000" fill-opacity="0.0" d="m128.29227 178.14273l2.240738 -0.1269989l3.0924377 -0.34220886l3.2946472 -0.6254883l2.8728943 -0.748291l3.9203339 -1.4450684l4.682617 -2.3088837l3.5831757 -2.3172913l3.499176 -3.0485535l3.7127075 -3.6684113l2.4043732 -3.3101807l1.6857147 -2.7207947l-4.851364 0.3908081l-4.712082 0.84417725l-3.994995 1.2437897l-4.2237244 1.7897034l-3.3974762 2.002304l-3.8547058 2.643158l-3.7588196 3.4485626l-2.3363037 2.5290375l-2.6970215 3.646759z" fill-rule="nonzero"></path><path stroke="#fff2cc" stroke-width="1.0" stroke-linejoin="round" stroke-linecap="butt" d="m128.29227 178.14273l2.240738 -0.1269989l3.0924377 -0.34220886l3.2946472 -0.6254883l2.8728943 -0.748291l3.9203339 -1.4450684l4.682617 -2.3088837l3.5831757 -2.3172913l3.499176 -3.0485535l3.7127075 -3.6684113l2.4043732 -3.3101807l1.6857147 -2.7207947l-4.851364 0.3908081l-4.712082 0.84417725l-3.994995 1.2437897l-4.2237244 1.7897034l-3.3974762 2.002304l-3.8547058 2.643158l-3.7588196 3.4485626l-2.3363037 2.5290375l-2.6970215 3.646759z" fill-rule="nonzero"></path><path fill="#000000" fill-opacity="0.0" d="m127.99325 136.95538l1.2313156 1.9085846l1.8424683 2.5504303l2.1866455 2.5865326l2.0807037 2.1537933l3.202835 2.7267456l4.3253326 2.9649963l3.781845 1.9931183l4.366791 1.5529175l5.005249 1.4303894l4.0427094 0.45828247l3.1773682 0.12094116l-2.7651978 -4.0742188l-3.084198 -3.7245483l-3.0676422 -2.8932495l-3.650299 -2.8211517l-3.4187317 -1.987442l-4.1972656 -2.0688782l-4.8398285 -1.5810852l-3.3388214 -0.7896118l-4.4779205 -0.54730225z" fill-rule="nonzero"></path><path stroke="#fff2cc" stroke-width="1.0" stroke-linejoin="round" stroke-linecap="butt" d="m127.99325 136.95538l1.2313156 1.9085846l1.8424683 2.5504303l2.1866455 2.5865326l2.0807037 2.1537933l3.202835 2.7267456l4.3253326 2.9649963l3.781845 1.9931183l4.366791 1.5529175l5.005249 1.4303894l4.0427094 0.45828247l3.1773682 0.12094116l-2.7651978 -4.0742188l-3.084198 -3.7245483l-3.0676422 -2.8932495l-3.650299 -2.8211517l-3.4187317 -1.987442l-4.1972656 -2.0688782l-4.8398285 -1.5810852l-3.3388214 -0.7896118l-4.4779205 -0.54730225z" fill-rule="nonzero"></path><path fill="#000000" fill-opacity="0.0" d="m128.14928 218.86732l1.0013275 -1.9921722l1.2418671 -2.8319092l1.1042023 -3.1460724l0.7926483 -2.8436584l0.7259979 -4.090042l0.3782196 -5.1734924l-0.17245483 -4.2309723l-0.8274231 -4.5201874l-1.2418671 -5.0105286l-1.5881958 -3.706894l-1.4490967 -2.7966766l-2.0707474 4.370453l-1.6215286 4.4746857l-0.9317627 4.0548096l-0.58688354 4.5216675l0 3.9153442l0.31155396 4.625885l1.0346527 4.9415283l0.9665375 3.2620544l1.7258682 4.12529z" fill-rule="nonzero"></path><path stroke="#fff2cc" stroke-width="1.0" stroke-linejoin="round" stroke-linecap="butt" d="m128.14928 218.86732l1.0013275 -1.9921722l1.2418671 -2.8319092l1.1042023 -3.1460724l0.7926483 -2.8436584l0.7259979 -4.090042l0.3782196 -5.1734924l-0.17245483 -4.2309723l-0.8274231 -4.5201874l-1.2418671 -5.0105286l-1.5881958 -3.706894l-1.4490967 -2.7966766l-2.0707474 4.370453l-1.6215286 4.4746857l-0.9317627 4.0548096l-0.58688354 4.5216675l0 3.9153442l0.31155396 4.625885l1.0346527 4.9415283l0.9665375 3.2620544l1.7258682 4.12529z" fill-rule="nonzero"></path><path fill="#000000" fill-opacity="0.0" d="m198.17178 217.5458l1.0013275 -1.9921722l1.2418671 -2.8319092l1.1042023 -3.1460724l0.7926483 -2.8436584l0.7259979 -4.090042l0.3782196 -5.1734924l-0.17245483 -4.2309723l-0.8274231 -4.5202026l-1.2418671 -5.0105286l-1.5881958 -3.7068787l-1.4490967 -2.7966766l-2.0707397 4.370453l-1.6215363 4.4746857l-0.9317627 4.0548096l-0.58688354 4.521652l0 3.9153595l0.31155396 4.625885l1.0346527 4.9415283l0.9665375 3.2620544l1.7258606 4.12529z" fill-rule="nonzero"></path><path stroke="#fff2cc" stroke-width="1.0" stroke-linejoin="round" stroke-linecap="butt" d="m198.17178 217.5458l1.0013275 -1.9921722l1.2418671 -2.8319092l1.1042023 -3.1460724l0.7926483 -2.8436584l0.7259979 -4.090042l0.3782196 -5.1734924l-0.17245483 -4.2309723l-0.8274231 -4.5202026l-1.2418671 -5.0105286l-1.5881958 -3.7068787l-1.4490967 -2.7966766l-2.0707397 4.370453l-1.6215363 4.4746857l-0.9317627 4.0548096l-0.58688354 4.521652l0 3.9153595l0.31155396 4.625885l1.0346527 4.9415283l0.9665375 3.2620544l1.7258606 4.12529z" fill-rule="nonzero"></path><path fill="#000000" fill-opacity="0.0" d="m198.1849 137.51707l1.0013275 -1.9921722l1.2418671 -2.8319092l1.1042023 -3.1460876l0.7926483 -2.8436508l0.7259979 -4.0900497l0.3782196 -5.173485l-0.17243958 -4.23098l-0.82743835 -4.520195l-1.2418671 -5.0105286l-1.5881958 -3.7068787l-1.4490967 -2.7966766l-2.0707397 4.370453l-1.6215363 4.474678l-0.9317627 4.054817l-0.58688354 4.52166l0 3.9153442l0.31155396 4.6258926l1.0346527 4.941536l0.9665375 3.2620544l1.7258606 4.1252747z" fill-rule="nonzero"></path><path stroke="#fff2cc" stroke-width="1.0" stroke-linejoin="round" stroke-linecap="butt" d="m198.1849 137.51707l1.0013275 -1.9921722l1.2418671 -2.8319092l1.1042023 -3.1460876l0.7926483 -2.8436508l0.7259979 -4.0900497l0.3782196 -5.173485l-0.17243958 -4.23098l-0.82743835 -4.520195l-1.2418671 -5.0105286l-1.5881958 -3.7068787l-1.4490967 -2.7966766l-2.0707397 4.370453l-1.6215363 4.474678l-0.9317627 4.054817l-0.58688354 4.52166l0 3.9153442l0.31155396 4.6258926l1.0346527 4.941536l0.9665375 3.2620544l1.7258606 4.1252747z" fill-rule="nonzero"></path><path fill="#000000" fill-opacity="0.0" d="m128.11122 137.58386l1.0013275 -1.9921722l1.2418671 -2.8319092l1.1042023 -3.1460724l0.7926483 -2.8436584l0.7259979 -4.090042l0.37820435 -5.173485l-0.17243958 -4.2309875l-0.8274231 -4.5201874l-1.2418671 -5.0105286l-1.588211 -3.7068787l-1.4490814 -2.7966766l-2.0707474 4.3704453l-1.6215286 4.4746857l-0.9317703 4.0548096l-0.5868759 4.52166l0 3.9153519l0.31155396 4.6258926l1.0346451 4.9415207l0.9665451 3.2620544l1.7258682 4.12529z" fill-rule="nonzero"></path><path stroke="#fff2cc" stroke-width="1.0" stroke-linejoin="round" stroke-linecap="butt" d="m128.11122 137.58386l1.0013275 -1.9921722l1.2418671 -2.8319092l1.1042023 -3.1460724l0.7926483 -2.8436584l0.7259979 -4.090042l0.37820435 -5.173485l-0.17243958 -4.2309875l-0.8274231 -4.5201874l-1.2418671 -5.0105286l-1.588211 -3.7068787l-1.4490814 -2.7966766l-2.0707474 4.3704453l-1.6215286 4.4746857l-0.9317703 4.0548096l-0.5868759 4.52166l0 3.9153519l0.31155396 4.6258926l1.0346451 4.9415207l0.9665451 3.2620544l1.7258682 4.12529z" fill-rule="nonzero"></path><path fill="#000000" fill-opacity="0.0" d="m197.7885 218.84193l-1.212326 -1.8712616l-1.8151398 -2.5034485l-2.155777 -2.5435638l-2.052414 -2.1218567l-3.161377 -2.694641l-4.271927 -2.9425201l-3.7372742 -1.9908447l-4.317978 -1.572052l-4.9505463 -1.4624786l-4.001007 -0.50445557l-3.1454468 -0.16416931l2.7233124 3.9965515l3.0403748 3.661728l3.0269318 2.8543396l3.6040955 2.7929077l3.3777618 1.9799957l4.1483154 2.0705414l4.7862396 1.606369l3.3029175 0.8157959l4.4315796 0.5972748z" fill-rule="nonzero"></path><path stroke="#fff2cc" stroke-width="1.0" stroke-linejoin="round" stroke-linecap="butt" d="m197.7885 218.84193l-1.212326 -1.8712616l-1.8151398 -2.5034485l-2.155777 -2.5435638l-2.052414 -2.1218567l-3.161377 -2.694641l-4.271927 -2.9425201l-3.7372742 -1.9908447l-4.317978 -1.572052l-4.9505463 -1.4624786l-4.001007 -0.50445557l-3.1454468 -0.16416931l2.7233124 3.9965515l3.0403748 3.661728l3.0269318 2.8543396l3.6040955 2.7929077l3.3777618 1.9799957l4.1483154 2.0705414l4.7862396 1.606369l3.3029175 0.8157959l4.4315796 0.5972748z" fill-rule="nonzero"></path><path fill="#000000" fill-opacity="0.0" d="m233.36684 239.38493l-1.212326 -1.8712769l-1.8151398 -2.5034485l-2.1557617 -2.5435486l-2.0524292 -2.1218567l-3.161377 -2.6946564l-4.271927 -2.942505l-3.7372742 -1.99086l-4.3179626 -1.572052l-4.9505463 -1.4624786l-4.0010223 -0.50445557l-3.1454315 -0.16416931l2.723297 3.9965515l3.0403748 3.661728l3.026947 2.8543549l3.6040802 2.7929077l3.377777 1.9799957l4.1483 2.0705414l4.7862396 1.6063538l3.3029175 0.8157959l4.4315796 0.5972748z" fill-rule="nonzero"></path><path stroke="#fff2cc" stroke-width="1.0" stroke-linejoin="round" stroke-linecap="butt" d="m233.36684 239.38493l-1.212326 -1.8712769l-1.8151398 -2.5034485l-2.1557617 -2.5435486l-2.0524292 -2.1218567l-3.161377 -2.6946564l-4.271927 -2.942505l-3.7372742 -1.99086l-4.3179626 -1.572052l-4.9505463 -1.4624786l-4.0010223 -0.50445557l-3.1454315 -0.16416931l2.723297 3.9965515l3.0403748 3.661728l3.026947 2.8543549l3.6040802 2.7929077l3.377777 1.9799957l4.1483 2.0705414l4.7862396 1.6063538l3.3029175 0.8157959l4.4315796 0.5972748z" fill-rule="nonzero"></path><path fill="#000000" fill-opacity="0.0" d="m128.12051 178.15257l-1.2123337 -1.8712769l-1.8151321 -2.5034485l-2.155777 -2.5435638l-2.052414 -2.1218414l-3.1613846 -2.6946564l-4.271927 -2.942505l-3.7372665 -1.99086l-4.3179703 -1.572052l-4.950554 -1.4624786l-4.0010147 -0.50445557l-3.1454391 -0.16416931l2.7233047 3.9965515l3.0403824 3.661728l3.0269394 2.8543549l3.6040802 2.7929077l3.377777 1.9799957l4.1483 2.0705414l4.7862396 1.6063538l3.3029175 0.8157959l4.4315796 0.5972748z" fill-rule="nonzero"></path><path stroke="#fff2cc" stroke-width="1.0" stroke-linejoin="round" stroke-linecap="butt" d="m128.12051 178.15257l-1.2123337 -1.8712769l-1.8151321 -2.5034485l-2.155777 -2.5435638l-2.052414 -2.1218414l-3.1613846 -2.6946564l-4.271927 -2.942505l-3.7372665 -1.99086l-4.3179703 -1.572052l-4.950554 -1.4624786l-4.0010147 -0.50445557l-3.1454391 -0.16416931l2.7233047 3.9965515l3.0403824 3.661728l3.0269394 2.8543549l3.6040802 2.7929077l3.377777 1.9799957l4.1483 2.0705414l4.7862396 1.6063538l3.3029175 0.8157959l4.4315796 0.5972748z" fill-rule="nonzero"></path><path fill="#000000" fill-opacity="0.0" d="m163.81248 198.26616l-1.212326 -1.8712769l-1.8151398 -2.5034485l-2.155777 -2.5435486l-2.052414 -2.1218567l-3.161377 -2.694641l-4.271927 -2.9425201l-3.7372742 -1.99086l-4.3179626 -1.572052l-4.9505615 -1.4624786l-4.001007 -0.50445557l-3.1454468 -0.16416931l2.7233124 3.9965668l3.0403748 3.661728l3.026947 2.8543396l3.6040802 2.7929077l3.377777 1.9799957l4.1483 2.0705414l4.7862396 1.6063538l3.3029175 0.8157959l4.4315796 0.59729004z" fill-rule="nonzero"></path><path stroke="#fff2cc" stroke-width="1.0" stroke-linejoin="round" stroke-linecap="butt" d="m163.81248 198.26616l-1.212326 -1.8712769l-1.8151398 -2.5034485l-2.155777 -2.5435486l-2.052414 -2.1218567l-3.161377 -2.694641l-4.271927 -2.9425201l-3.7372742 -1.99086l-4.3179626 -1.572052l-4.9505615 -1.4624786l-4.001007 -0.50445557l-3.1454468 -0.16416931l2.7233124 3.9965668l3.0403748 3.661728l3.026947 2.8543396l3.6040802 2.7929077l3.377777 1.9799957l4.1483 2.0705414l4.7862396 1.6063538l3.3029175 0.8157959l4.4315796 0.59729004z" fill-rule="nonzero"></path><path fill="#000000" fill-opacity="0.0" d="m267.33597 178.09352l-1.2123108 -1.8712769l-1.8151245 -2.5034485l-2.1557922 -2.5435638l-2.0523987 -2.1218414l-3.1614075 -2.6946564l-4.2719116 -2.9425201l-3.7372742 -1.9908447l-4.317978 -1.572052l-4.9505463 -1.4624786l-4.001007 -0.50445557l-3.1454468 -0.16416931l2.7233124 3.9965515l3.0403748 3.661728l3.026947 2.8543549l3.6040802 2.7928925l3.3777618 1.9799957l4.1483154 2.0705566l4.7862396 1.6063538l3.3029175 0.8157959l4.4315796 0.5972748z" fill-rule="nonzero"></path><path stroke="#fff2cc" stroke-width="1.0" stroke-linejoin="round" stroke-linecap="butt" d="m267.33597 178.09352l-1.2123108 -1.8712769l-1.8151245 -2.5034485l-2.1557922 -2.5435638l-2.0523987 -2.1218414l-3.1614075 -2.6946564l-4.2719116 -2.9425201l-3.7372742 -1.9908447l-4.317978 -1.572052l-4.9505463 -1.4624786l-4.001007 -0.50445557l-3.1454468 -0.16416931l2.7233124 3.9965515l3.0403748 3.661728l3.026947 2.8543549l3.6040802 2.7928925l3.3777618 1.9799957l4.1483154 2.0705566l4.7862396 1.6063538l3.3029175 0.8157959l4.4315796 0.5972748z" fill-rule="nonzero"></path><path fill="#000000" fill-opacity="0.0" d="m233.30779 157.9803l-1.212326 -1.8712769l-1.8151398 -2.5034485l-2.155777 -2.5435638l-2.052414 -2.1218414l-3.161377 -2.6946564l-4.271927 -2.9425201l-3.7372742 -1.9908447l-4.317978 -1.572052l-4.9505463 -1.4624786l-4.001007 -0.50445557l-3.1454468 -0.16416931l2.7233124 3.9965515l3.0403748 3.661728l3.0269318 2.8543549l3.6040955 2.7929077l3.3777618 1.9799805l4.1483154 2.0705566l4.7862396 1.6063538l3.3029175 0.8157959l4.4315796 0.5972748z" fill-rule="nonzero"></path><path stroke="#fff2cc" stroke-width="1.0" stroke-linejoin="round" stroke-linecap="butt" d="m233.30779 157.9803l-1.212326 -1.8712769l-1.8151398 -2.5034485l-2.155777 -2.5435638l-2.052414 -2.1218414l-3.161377 -2.6946564l-4.271927 -2.9425201l-3.7372742 -1.9908447l-4.317978 -1.572052l-4.9505463 -1.4624786l-4.001007 -0.50445557l-3.1454468 -0.16416931l2.7233124 3.9965515l3.0403748 3.661728l3.0269318 2.8543549l3.6040955 2.7929077l3.3777618 1.9799805l4.1483154 2.0705566l4.7862396 1.6063538l3.3029175 0.8157959l4.4315796 0.5972748z" fill-rule="nonzero"></path><path fill="#000000" fill-opacity="0.0" d="m232.40637 158.90964l2.246582 -0.13301086l3.1000366 -0.3509674l3.3020935 -0.63552856l2.8788757 -0.7575989l3.9274292 -1.4589233l4.6895905 -2.327011l3.5871124 -2.332672l3.5010376 -3.0657043l3.713562 -3.68779l2.402588 -3.3252716l1.6834106 -2.732483l-4.863678 0.4041443l-4.72287 0.8584137l-4.0027924 1.2572784l-4.2307587 1.8052521l-3.4017181 2.0163574l-3.8585663 2.6601105l-3.7603607 3.4674683l-2.3362885 2.5418243l-2.69516 3.6635132z" fill-rule="nonzero"></path><path stroke="#fff2cc" stroke-width="1.0" stroke-linejoin="round" stroke-linecap="butt" d="m232.40637 158.90964l2.246582 -0.13301086l3.1000366 -0.3509674l3.3020935 -0.63552856l2.8788757 -0.7575989l3.9274292 -1.4589233l4.6895905 -2.327011l3.5871124 -2.332672l3.5010376 -3.0657043l3.713562 -3.68779l2.402588 -3.3252716l1.6834106 -2.732483l-4.863678 0.4041443l-4.72287 0.8584137l-4.0027924 1.2572784l-4.2307587 1.8052521l-3.4017181 2.0163574l-3.8585663 2.6601105l-3.7603607 3.4674683l-2.3362885 2.5418243l-2.69516 3.6635132z" fill-rule="nonzero"></path><path fill="#000000" fill-opacity="0.0" d="m198.2745 178.21375l2.2465668 -0.13302612l3.1000519 -0.3509674l3.3020935 -0.6355133l2.8788757 -0.7575989l3.927414 -1.4589233l4.6896057 -2.327011l3.5871124 -2.3326874l3.5010223 -3.065689l3.7135773 -3.6878052l2.4025726 -3.3252716l1.6834106 -2.7324677l-4.863678 0.4041443l-4.7228546 0.8584137l-4.0028076 1.2572784l-4.2307587 1.8052521l-3.401703 2.0163574l-3.8585663 2.6600952l-3.7603607 3.4674835l-2.3362885 2.5418243l-2.6951752 3.663498z" fill-rule="nonzero"></path><path stroke="#fff2cc" stroke-width="1.0" stroke-linejoin="round" stroke-linecap="butt" d="m198.2745 178.21375l2.2465668 -0.13302612l3.1000519 -0.3509674l3.3020935 -0.6355133l2.8788757 -0.7575989l3.927414 -1.4589233l4.6896057 -2.327011l3.5871124 -2.3326874l3.5010223 -3.065689l3.7135773 -3.6878052l2.4025726 -3.3252716l1.6834106 -2.7324677l-4.863678 0.4041443l-4.7228546 0.8584137l-4.0028076 1.2572784l-4.2307587 1.8052521l-3.401703 2.0163574l-3.8585663 2.6600952l-3.7603607 3.4674835l-2.3362885 2.5418243l-2.6951752 3.663498z" fill-rule="nonzero"></path><path fill="#000000" fill-opacity="0.0" d="m163.41801 198.55647l2.2465668 -0.13302612l3.1000519 -0.3509674l3.3020935 -0.6355133l2.8788605 -0.7575989l3.9274292 -1.4589233l4.6896057 -2.327011l3.5871124 -2.3326874l3.5010223 -3.065689l3.7135773 -3.6878052l2.4025574 -3.3252716l1.6834259 -2.7324677l-4.863678 0.4041443l-4.72287 0.8584137l-4.0027924 1.2572784l-4.2307587 1.8052521l-3.401703 2.0163574l-3.8585815 2.6600952l-3.7603455 3.4674835l-2.3362885 2.5418243l-2.6951752 3.663498z" fill-rule="nonzero"></path><path stroke="#fff2cc" stroke-width="1.0" stroke-linejoin="round" stroke-linecap="butt" d="m163.41801 198.55647l2.2465668 -0.13302612l3.1000519 -0.3509674l3.3020935 -0.6355133l2.8788605 -0.7575989l3.9274292 -1.4589233l4.6896057 -2.327011l3.5871124 -2.3326874l3.5010223 -3.065689l3.7135773 -3.6878052l2.4025574 -3.3252716l1.6834259 -2.7324677l-4.863678 0.4041443l-4.72287 0.8584137l-4.0027924 1.2572784l-4.2307587 1.8052521l-3.401703 2.0163574l-3.8585815 2.6600952l-3.7603455 3.4674835l-2.3362885 2.5418243l-2.6951752 3.663498z" fill-rule="nonzero"></path><path fill="#000000" fill-opacity="0.0" d="m92.92319 239.57419l2.2465744 -0.13301086l3.1000443 -0.3509674l3.3020935 -0.63552856l2.8788757 -0.7575989l3.9274216 -1.4589233l4.689598 -2.327011l3.58712 -2.332672l3.5010223 -3.0657043l3.7135773 -3.68779l2.402565 -3.3252716l1.6834106 -2.732483l-4.8636703 0.4041443l-4.7228622 0.8584137l-4.0028 1.2572784l-4.2307587 1.8052521l-3.4017105 2.0163574l-3.8585663 2.6601105l-3.7603607 3.4674683l-2.3362885 2.5418243l-2.6951675 3.6635132z" fill-rule="nonzero"></path><path stroke="#fff2cc" stroke-width="1.0" stroke-linejoin="round" stroke-linecap="butt" d="m92.92319 239.57419l2.2465744 -0.13301086l3.1000443 -0.3509674l3.3020935 -0.63552856l2.8788757 -0.7575989l3.9274216 -1.4589233l4.689598 -2.327011l3.58712 -2.332672l3.5010223 -3.0657043l3.7135773 -3.68779l2.402565 -3.3252716l1.6834106 -2.732483l-4.8636703 0.4041443l-4.7228622 0.8584137l-4.0028 1.2572784l-4.2307587 1.8052521l-3.4017105 2.0163574l-3.8585663 2.6601105l-3.7603607 3.4674683l-2.3362885 2.5418243l-2.6951675 3.6635132z" fill-rule="nonzero"></path><path fill="#000000" fill-opacity="0.0" d="m128.8855 219.0312l2.246582 -0.13302612l3.1000366 -0.3509674l3.3020935 -0.6355133l2.8788757 -0.7575989l3.9274292 -1.4589233l4.6895905 -2.327011l3.5871277 -2.3326874l3.5010223 -3.065689l3.7135773 -3.6878052l2.4025574 -3.3252716l1.6834259 -2.7324677l-4.863678 0.4041443l-4.72287 0.8584137l-4.0027924 1.2572784l-4.2307587 1.8052521l-3.4017181 2.0163574l-3.8585663 2.6600952l-3.7603607 3.4674835l-2.3362885 2.5418243l-2.69516 3.663498z" fill-rule="nonzero"></path><path stroke="#fff2cc" stroke-width="1.0" stroke-linejoin="round" stroke-linecap="butt" d="m128.8855 219.0312l2.246582 -0.13302612l3.1000366 -0.3509674l3.3020935 -0.6355133l2.8788757 -0.7575989l3.9274292 -1.4589233l4.6895905 -2.327011l3.5871277 -2.3326874l3.5010223 -3.065689l3.7135773 -3.6878052l2.4025574 -3.3252716l1.6834259 -2.7324677l-4.863678 0.4041443l-4.72287 0.8584137l-4.0027924 1.2572784l-4.2307587 1.8052521l-3.4017181 2.0163574l-3.8585663 2.6600952l-3.7603607 3.4674835l-2.3362885 2.5418243l-2.69516 3.663498z" fill-rule="nonzero"></path><path fill="#000000" fill-opacity="0.0" d="m162.86151 117.878876l2.246582 -0.1330185l3.1000366 -0.3509674l3.3020935 -0.6355133l2.8788757 -0.7576065l3.9274292 -1.4589157l4.6895905 -2.327011l3.5871277 -2.3326797l3.5010223 -3.0657043l3.7135773 -3.68779l2.4025574 -3.3252716l1.6834106 -2.7324753l-4.863678 0.4041443l-4.7228546 0.8584137l-4.0027924 1.2572784l-4.2307587 1.8052521l-3.4017181 2.0163498l-3.8585663 2.6601105l-3.7603607 3.4674683l-2.3362885 2.541832l-2.69516 3.6635056z" fill-rule="nonzero"></path><path stroke="#fff2cc" stroke-width="1.0" stroke-linejoin="round" stroke-linecap="butt" d="m162.86151 117.878876l2.246582 -0.1330185l3.1000366 -0.3509674l3.3020935 -0.6355133l2.8788757 -0.7576065l3.9274292 -1.4589157l4.6895905 -2.327011l3.5871277 -2.3326797l3.5010223 -3.0657043l3.7135773 -3.68779l2.4025574 -3.3252716l1.6834106 -2.7324753l-4.863678 0.4041443l-4.7228546 0.8584137l-4.0027924 1.2572784l-4.2307587 1.8052521l-3.4017181 2.0163498l-3.8585663 2.6601105l-3.7603607 3.4674683l-2.3362885 2.541832l-2.69516 3.6635056z" fill-rule="nonzero"></path><path fill="#000000" fill-opacity="0.0" d="m128.88637 137.6522l2.2465668 -0.13302612l3.1000519 -0.3509674l3.3020935 -0.6355133l2.8788757 -0.75761414l3.927414 -1.4589081l4.6896057 -2.327011l3.5871124 -2.3326874l3.5010376 -3.0656967l3.713562 -3.6877975l2.4025726 -3.3252716l1.6834106 -2.7324677l-4.863678 0.4041443l-4.7228546 0.85840607l-4.0027924 1.2572861l-4.230774 1.8052444l-3.401703 2.0163574l-3.8585663 2.6601028l-3.7603607 3.4674683l-2.3362885 2.5418396l-2.6951752 3.663498z" fill-rule="nonzero"></path><path stroke="#fff2cc" stroke-width="1.0" stroke-linejoin="round" stroke-linecap="butt" d="m128.88637 137.6522l2.2465668 -0.13302612l3.1000519 -0.3509674l3.3020935 -0.6355133l2.8788757 -0.75761414l3.927414 -1.4589081l4.6896057 -2.327011l3.5871124 -2.3326874l3.5010376 -3.0656967l3.713562 -3.6877975l2.4025726 -3.3252716l1.6834106 -2.7324677l-4.863678 0.4041443l-4.7228546 0.85840607l-4.0027924 1.2572861l-4.230774 1.8052444l-3.401703 2.0163574l-3.8585663 2.6601028l-3.7603607 3.4674683l-2.3362885 2.5418396l-2.6951752 3.663498z" fill-rule="nonzero"></path><path fill="#000000" fill-opacity="0.0" d="m198.4031 96.82127l2.246582 -0.1330185l3.1000366 -0.3509674l3.3020935 -0.63552094l2.8788757 -0.7575989l3.9274292 -1.4589233l4.6895905 -2.327011l3.5871277 -2.3326797l3.5010223 -3.0656967l3.7135773 -3.6877975l2.4025574 -3.3252716l1.6834106 -2.7324677l-4.8636627 0.4041443l-4.72287 0.85840607l-4.0027924 1.2572861l-4.2307587 1.8052444l-3.4017181 2.0163574l-3.8585663 2.6601028l-3.7603607 3.467476l-2.3362885 2.5418243l-2.69516 3.6635056z" fill-rule="nonzero"></path><path stroke="#fff2cc" stroke-width="1.0" stroke-linejoin="round" stroke-linecap="butt" d="m198.4031 96.82127l2.246582 -0.1330185l3.1000366 -0.3509674l3.3020935 -0.63552094l2.8788757 -0.7575989l3.9274292 -1.4589233l4.6895905 -2.327011l3.5871277 -2.3326797l3.5010223 -3.0656967l3.7135773 -3.6877975l2.4025574 -3.3252716l1.6834106 -2.7324677l-4.8636627 0.4041443l-4.72287 0.85840607l-4.0027924 1.2572861l-4.2307587 1.8052444l-3.4017181 2.0163574l-3.8585663 2.6601028l-3.7603607 3.467476l-2.3362885 2.5418243l-2.69516 3.6635056z" fill-rule="nonzero"></path><path fill="#000000" fill-opacity="0.0" d="m92.92319 157.33751l2.2465744 -0.13302612l3.1000443 -0.3509674l3.3020935 -0.6355133l2.8788757 -0.7575989l3.9274216 -1.4589233l4.689598 -2.327011l3.58712 -2.332672l3.5010223 -3.0657043l3.7135773 -3.68779l2.402565 -3.3252716l1.6834106 -2.732483l-4.8636703 0.4041443l-4.7228622 0.8584137l-4.0028 1.2572784l-4.2307587 1.8052521l-3.4017105 2.0163574l-3.8585663 2.6601105l-3.7603607 3.4674683l-2.3362885 2.5418243l-2.6951675 3.663498z" fill-rule="nonzero"></path><path stroke="#fff2cc" stroke-width="1.0" stroke-linejoin="round" stroke-linecap="butt" d="m92.92319 157.33751l2.2465744 -0.13302612l3.1000443 -0.3509674l3.3020935 -0.6355133l2.8788757 -0.7575989l3.9274216 -1.4589233l4.689598 -2.327011l3.58712 -2.332672l3.5010223 -3.0657043l3.7135773 -3.68779l2.402565 -3.3252716l1.6834106 -2.732483l-4.8636703 0.4041443l-4.7228622 0.8584137l-4.0028 1.2572784l-4.2307587 1.8052521l-3.4017105 2.0163574l-3.8585663 2.6601105l-3.7603607 3.4674683l-2.3362885 2.5418243l-2.6951675 3.663498z" fill-rule="nonzero"></path><path fill="#000000" fill-opacity="0.0" d="m57.75303 178.46571l2.2465706 -0.13302612l3.100048 -0.3509674l3.3020935 -0.6355133l2.8788757 -0.7575989l3.9274216 -1.4589233l4.689598 -2.327011l3.58712 -2.3326874l3.5010223 -3.065689l3.7135773 -3.6878052l2.4025574 -3.3252716l1.6834183 -2.7324677l-4.863678 0.4041443l-4.7228546 0.8584137l-4.0028 1.2572784l-4.2307663 1.8052521l-3.401703 2.0163574l-3.858574 2.6600952l-3.760357 3.4674835l-2.3362846 2.5418243l-2.6951714 3.663498z" fill-rule="nonzero"></path><path stroke="#fff2cc" stroke-width="1.0" stroke-linejoin="round" stroke-linecap="butt" d="m57.75303 178.46571l2.2465706 -0.13302612l3.100048 -0.3509674l3.3020935 -0.6355133l2.8788757 -0.7575989l3.9274216 -1.4589233l4.689598 -2.327011l3.58712 -2.3326874l3.5010223 -3.065689l3.7135773 -3.6878052l2.4025574 -3.3252716l1.6834183 -2.7324677l-4.863678 0.4041443l-4.7228546 0.8584137l-4.0028 1.2572784l-4.2307663 1.8052521l-3.401703 2.0163574l-3.858574 2.6600952l-3.760357 3.4674835l-2.3362846 2.5418243l-2.6951714 3.663498z" fill-rule="nonzero"></path><path fill="#000000" fill-opacity="0.0" d="m127.85017 97.88092l-1.212326 -1.8712692l-1.8151321 -2.5034485l-2.155777 -2.5435562l-2.052414 -2.1218567l-3.1613846 -2.6946487l-4.271927 -2.9425125l-3.7372665 -1.9908524l-4.317978 -1.572052l-4.9505463 -1.4624786l-4.0010147 -0.50445557l-3.1454391 -0.16416931l2.7233047 3.9965515l3.0403748 3.661728l3.0269394 2.8543472l3.6040878 2.7929077l3.3777695 1.9799957l4.148308 2.0705414l4.7862396 1.6063614l3.3029175 0.8157959l4.4315796 0.5972748z" fill-rule="nonzero"></path><path stroke="#fff2cc" stroke-width="1.0" stroke-linejoin="round" stroke-linecap="butt" d="m127.85017 97.88092l-1.212326 -1.8712692l-1.8151321 -2.5034485l-2.155777 -2.5435562l-2.052414 -2.1218567l-3.1613846 -2.6946487l-4.271927 -2.9425125l-3.7372665 -1.9908524l-4.317978 -1.572052l-4.9505463 -1.4624786l-4.0010147 -0.50445557l-3.1454391 -0.16416931l2.7233047 3.9965515l3.0403748 3.661728l3.0269394 2.8543472l3.6040878 2.7929077l3.3777695 1.9799957l4.148308 2.0705414l4.7862396 1.6063614l3.3029175 0.8157959l4.4315796 0.5972748z" fill-rule="nonzero"></path><path fill="#000000" fill-opacity="0.0" d="m198.34532 138.0578l-1.212326 -1.8712616l-1.8151398 -2.5034485l-2.155777 -2.5435638l-2.052414 -2.1218567l-3.1613922 -2.694641l-4.271927 -2.9425201l-3.737259 -1.9908447l-4.317978 -1.572052l-4.9505463 -1.4624863l-4.001007 -0.50444794l-3.1454468 -0.16416931l2.7233124 3.9965515l3.0403748 3.661728l3.0269318 2.8543396l3.6040802 2.7929077l3.377777 1.9799957l4.1483 2.0705414l4.7862396 1.606369l3.3029327 0.8157959l4.4315796 0.5972748z" fill-rule="nonzero"></path><path stroke="#fff2cc" stroke-width="1.0" stroke-linejoin="round" stroke-linecap="butt" d="m198.34532 138.0578l-1.212326 -1.8712616l-1.8151398 -2.5034485l-2.155777 -2.5435638l-2.052414 -2.1218567l-3.1613922 -2.694641l-4.271927 -2.9425201l-3.737259 -1.9908447l-4.317978 -1.572052l-4.9505463 -1.4624863l-4.001007 -0.50444794l-3.1454468 -0.16416931l2.7233124 3.9965515l3.0403748 3.661728l3.0269318 2.8543396l3.6040802 2.7929077l3.377777 1.9799957l4.1483 2.0705414l4.7862396 1.606369l3.3029327 0.8157959l4.4315796 0.5972748z" fill-rule="nonzero"></path><path fill="#000000" fill-opacity="0.0" d="m92.71089 158.00961l-1.212326 -1.8712616l-1.8151321 -2.5034485l-2.155777 -2.5435638l-2.052414 -2.1218567l-3.1613846 -2.694641l-4.271927 -2.9425201l-3.7372742 -1.9908447l-4.3179703 -1.572052l-4.9505463 -1.4624939l-4.0010147 -0.5044403l-3.1454391 -0.16416931l2.7233047 3.9965515l3.0403786 3.661728l3.0269356 2.8543396l3.6040878 2.7929077l3.3777695 1.9799957l4.148308 2.0705414l4.7862396 1.606369l3.3029175 0.8157959l4.4315796 0.5972748z" fill-rule="nonzero"></path><path stroke="#fff2cc" stroke-width="1.0" stroke-linejoin="round" stroke-linecap="butt" d="m92.71089 158.00961l-1.212326 -1.8712616l-1.8151321 -2.5034485l-2.155777 -2.5435638l-2.052414 -2.1218567l-3.1613846 -2.694641l-4.271927 -2.9425201l-3.7372742 -1.9908447l-4.3179703 -1.572052l-4.9505463 -1.4624939l-4.0010147 -0.5044403l-3.1454391 -0.16416931l2.7233047 3.9965515l3.0403786 3.661728l3.0269356 2.8543396l3.6040878 2.7929077l3.3777695 1.9799957l4.148308 2.0705414l4.7862396 1.606369l3.3029175 0.8157959l4.4315796 0.5972748z" fill-rule="nonzero"></path><path fill="#000000" fill-opacity="0.0" d="m163.81334 117.68962l-1.212326 -1.8712692l-1.8151245 -2.5034485l-2.155777 -2.5435638l-2.052414 -2.121849l-3.1613922 -2.6946487l-4.271927 -2.9425201l-3.737259 -1.9908447l-4.317978 -1.572052l-4.9505463 -1.4624863l-4.0010223 -0.50444794l-3.1454315 -0.16416931l2.723297 3.9965515l3.04039 3.661728l3.0269318 2.8543472l3.6040802 2.7929077l3.377777 1.9799957l4.1483 2.0705414l4.7862396 1.6063538l3.3029175 0.8158035l4.4315796 0.5972748z" fill-rule="nonzero"></path><path stroke="#fff2cc" stroke-width="1.0" stroke-linejoin="round" stroke-linecap="butt" d="m163.81334 117.68962l-1.212326 -1.8712692l-1.8151245 -2.5034485l-2.155777 -2.5435638l-2.052414 -2.121849l-3.1613922 -2.6946487l-4.271927 -2.9425201l-3.737259 -1.9908447l-4.317978 -1.572052l-4.9505463 -1.4624863l-4.0010223 -0.50444794l-3.1454315 -0.16416931l2.723297 3.9965515l3.04039 3.661728l3.0269318 2.8543472l3.6040802 2.7929077l3.377777 1.9799957l4.1483 2.0705414l4.7862396 1.6063538l3.3029175 0.8158035l4.4315796 0.5972748z" fill-rule="nonzero"></path><path fill="#000000" fill-opacity="0.0" d="m198.2361 259.66428l1.0013123 -1.9921875l1.2418671 -2.831894l1.1042023 -3.1460876l0.7926636 -2.8436584l0.72598267 -4.090042l0.3782196 -5.173477l-0.17243958 -4.2309875l-0.82743835 -4.5201874l-1.2418671 -5.0105286l-1.5881958 -3.7068787l-1.4490967 -2.7966766l-2.0707397 4.3704376l-1.6215363 4.4746857l-0.9317627 4.0548096l-0.58688354 4.5216675l0 3.9153442l0.31155396 4.6259003l1.0346527 4.9415283l0.9665375 3.2620544l1.7258759 4.1252747z" fill-rule="nonzero"></path><path stroke="#fff2cc" stroke-width="1.0" stroke-linejoin="round" stroke-linecap="butt" d="m198.2361 259.66428l1.0013123 -1.9921875l1.2418671 -2.831894l1.1042023 -3.1460876l0.7926636 -2.8436584l0.72598267 -4.090042l0.3782196 -5.173477l-0.17243958 -4.2309875l-0.82743835 -4.5201874l-1.2418671 -5.0105286l-1.5881958 -3.7068787l-1.4490967 -2.7966766l-2.0707397 4.3704376l-1.6215363 4.4746857l-0.9317627 4.0548096l-0.58688354 4.5216675l0 3.9153442l0.31155396 4.6259003l1.0346527 4.9415283l0.9665375 3.2620544l1.7258759 4.1252747z" fill-rule="nonzero"></path><path fill="#000000" fill-opacity="0.0" d="m128.14928 259.66428l1.0013275 -1.9921875l1.2418671 -2.831894l1.1042023 -3.1460876l0.7926483 -2.8436584l0.7259979 -4.090042l0.3782196 -5.173477l-0.17245483 -4.2309875l-0.8274231 -4.5201874l-1.2418671 -5.0105286l-1.5881958 -3.7068787l-1.4490967 -2.7966766l-2.0707474 4.3704376l-1.6215286 4.4746857l-0.9317627 4.0548096l-0.58688354 4.5216675l0 3.9153442l0.31155396 4.6259003l1.0346527 4.9415283l0.9665375 3.2620544l1.7258682 4.1252747z" fill-rule="nonzero"></path><path stroke="#fff2cc" stroke-width="1.0" stroke-linejoin="round" stroke-linecap="butt" d="m128.14928 259.66428l1.0013275 -1.9921875l1.2418671 -2.831894l1.1042023 -3.1460876l0.7926483 -2.8436584l0.7259979 -4.090042l0.3782196 -5.173477l-0.17245483 -4.2309875l-0.8274231 -4.5201874l-1.2418671 -5.0105286l-1.5881958 -3.7068787l-1.4490967 -2.7966766l-2.0707474 4.3704376l-1.6215286 4.4746857l-0.9317627 4.0548096l-0.58688354 4.5216675l0 3.9153442l0.31155396 4.6259003l1.0346527 4.9415283l0.9665375 3.2620544l1.7258682 4.1252747z" fill-rule="nonzero"></path><path fill="#000000" fill-opacity="0.0" d="m198.18524 178.14944l1.0013123 -1.9921875l1.2418823 -2.8319092l1.1042023 -3.1460724l0.7926483 -2.8436584l0.7259979 -4.090042l0.37820435 -5.173477l-0.17243958 -4.2309875l-0.8274231 -4.5201874l-1.2418823 -5.0105286l-1.5881958 -3.7068787l-1.4490814 -2.7966766l-2.070755 4.3704376l-1.621521 4.4746857l-0.93177795 4.0548096l-0.5868683 4.5216675l0 3.9153442l0.31155396 4.6259003l1.0346375 4.9415283l0.96655273 3.2620544l1.7258606 4.1252747z" fill-rule="nonzero"></path><path stroke="#fff2cc" stroke-width="1.0" stroke-linejoin="round" stroke-linecap="butt" d="m198.18524 178.14944l1.0013123 -1.9921875l1.2418823 -2.8319092l1.1042023 -3.1460724l0.7926483 -2.8436584l0.7259979 -4.090042l0.37820435 -5.173477l-0.17243958 -4.2309875l-0.8274231 -4.5201874l-1.2418823 -5.0105286l-1.5881958 -3.7068787l-1.4490814 -2.7966766l-2.070755 4.3704376l-1.621521 4.4746857l-0.93177795 4.0548096l-0.5868683 4.5216675l0 3.9153442l0.31155396 4.6259003l1.0346375 4.9415283l0.96655273 3.2620544l1.7258606 4.1252747z" fill-rule="nonzero"></path><path fill="#000000" fill-opacity="0.0" d="m128.11139 178.06807l1.0013123 -1.9921722l1.2418823 -2.8319092l1.1042023 -3.1460724l0.7926483 -2.8436584l0.7259979 -4.090042l0.37820435 -5.1734924l-0.17243958 -4.2309723l-0.8274231 -4.5202026l-1.2418671 -5.0105286l-1.588211 -3.7068787l-1.4490814 -2.7966766l-2.070755 4.370453l-1.6215286 4.4746857l-0.9317627 4.0548096l-0.58688354 4.5216675l0 3.9153442l0.31155396 4.625885l1.0346527 4.9415283l0.9665451 3.2620544l1.7258606 4.12529z" fill-rule="nonzero"></path><path stroke="#fff2cc" stroke-width="1.0" stroke-linejoin="round" stroke-linecap="butt" d="m128.11139 178.06807l1.0013123 -1.9921722l1.2418823 -2.8319092l1.1042023 -3.1460724l0.7926483 -2.8436584l0.7259979 -4.090042l0.37820435 -5.1734924l-0.17243958 -4.2309723l-0.8274231 -4.5202026l-1.2418671 -5.0105286l-1.588211 -3.7068787l-1.4490814 -2.7966766l-2.070755 4.370453l-1.6215286 4.4746857l-0.9317627 4.0548096l-0.58688354 4.5216675l0 3.9153442l0.31155396 4.625885l1.0346527 4.9415283l0.9665451 3.2620544l1.7258606 4.12529z" fill-rule="nonzero"></path><path fill="#000000" fill-opacity="0.0" d="m198.17178 97.83767l1.0013275 -1.9921799l1.2418671 -2.8319092l1.1042023 -3.1460724l0.7926483 -2.8436584l0.7259979 -4.090042l0.3782196 -5.173485l-0.17245483 -4.2309875l-0.8274231 -4.5201874l-1.2418671 -5.0105286l-1.5881958 -3.7068825l-1.4490967 -2.7966766l-2.0707397 4.370449l-1.6215363 4.4746857l-0.9317627 4.0548096l-0.58688354 4.52166l0 3.9153442l0.31155396 4.6259003l1.0346527 4.9415283l0.9665375 3.2620544l1.7258606 4.1252823z" fill-rule="nonzero"></path><path stroke="#fff2cc" stroke-width="1.0" stroke-linejoin="round" stroke-linecap="butt" d="m198.17178 97.83767l1.0013275 -1.9921799l1.2418671 -2.8319092l1.1042023 -3.1460724l0.7926483 -2.8436584l0.7259979 -4.090042l0.3782196 -5.173485l-0.17245483 -4.2309875l-0.8274231 -4.5201874l-1.2418671 -5.0105286l-1.5881958 -3.7068825l-1.4490967 -2.7966766l-2.0707397 4.370449l-1.6215363 4.4746857l-0.9317627 4.0548096l-0.58688354 4.52166l0 3.9153442l0.31155396 4.6259003l1.0346527 4.9415283l0.9665375 3.2620544l1.7258606 4.1252823z" fill-rule="nonzero"></path><path fill="#000000" fill-opacity="0.0" d="m128.13501 97.100136l1.0013275 -1.9921722l1.2418671 -2.8319168l1.1042023 -3.1460724l0.7926483 -2.8436584l0.7259979 -4.090042l0.37820435 -5.173485l-0.17243958 -4.2309875l-0.8274231 -4.5201874l-1.2418671 -5.0105286l-1.588211 -3.7068825l-1.4490814 -2.7966766l-2.0707474 4.370449l-1.6215363 4.4746857l-0.9317627 4.0548096l-0.5868759 4.52166l0 3.9153519l0.31155396 4.6258926l1.0346451 4.9415283l0.9665451 3.2620544l1.7258606 4.1252823z" fill-rule="nonzero"></path><path stroke="#fff2cc" stroke-width="1.0" stroke-linejoin="round" stroke-linecap="butt" d="m128.13501 97.100136l1.0013275 -1.9921722l1.2418671 -2.8319168l1.1042023 -3.1460724l0.7926483 -2.8436584l0.7259979 -4.090042l0.37820435 -5.173485l-0.17243958 -4.2309875l-0.8274231 -4.5201874l-1.2418671 -5.0105286l-1.588211 -3.7068825l-1.4490814 -2.7966766l-2.0707474 4.370449l-1.6215363 4.4746857l-0.9317627 4.0548096l-0.5868759 4.52166l0 3.9153519l0.31155396 4.6258926l1.0346451 4.9415283l0.9665451 3.2620544l1.7258606 4.1252823z" fill-rule="nonzero"></path></g></svg>

